<svg xmlns="http://www.w3.org/2000/svg" xmlns:xlink="http://www.w3.org/1999/xlink" viewBox="0 0 477.64 521.81"><defs><style>.cls-1{fill:url(#Degradado_sin_nombre_17);}.cls-2{fill:url(#Degradado_sin_nombre_17-2);}</style><linearGradient id="Degradado_sin_nombre_17" x1="-10.38" y1="473.74" x2="339.46" y2="198.24" gradientUnits="userSpaceOnUse"><stop offset="0" stop-color="#00e7ef"/><stop offset="1" stop-color="#00e789"/></linearGradient><linearGradient id="Degradado_sin_nombre_17-2" x1="-67.21" y1="338.22" x2="254.6" y2="84.8" xlink:href="#Degradado_sin_nombre_17"/></defs><g id="Capa_2" data-name="Capa 2"><g id="Capa_1-2" data-name="Capa 1"><path class="cls-1" d="M291.25,425.09c-99.77,0-184.28-75.84-191.67-175.18-3.76-50.58,12.8-99.6,46.62-138A193.37,193.37,0,0,1,277.85,46.7c91.28-6.74,175.28,51,199.79,137.44L418,201.05c-16.52-58.25-73.53-97.18-135.59-92.57a131.75,131.75,0,0,0-89.75,44.35,125,125,0,0,0-31.33,92.49c5.21,70.1,68,122.77,140,117.44,53.55-4,98.77-38.77,115.2-88.64l58.84,19.39c-24.3,73.75-90.81,125.19-169.45,131C301,424.91,296.11,425.09,291.25,425.09Z"/><rect class="cls-2" width="61.95" height="521.81"/></g></g></svg>