<svg xmlns="http://www.w3.org/2000/svg" viewBox="0 0 709.9 214.92"><defs><style>.cls-1{fill:#fff;}</style></defs><g id="Capa_2" data-name="Capa 2"><g id="Capa_1-2" data-name="Capa 1"><path class="cls-1" d="M271.61,63.48a8.11,8.11,0,0,1,5.94,2.42A8.3,8.3,0,0,1,280,72v72.25a8.28,8.28,0,0,1-2.42,6.1,8.07,8.07,0,0,1-5.94,2.42,8,8,0,0,1-6-2.42,8.42,8.42,0,0,1-2.34-6.1v-12l3.34.5a12.53,12.53,0,0,1-2.42,6.69,32.36,32.36,0,0,1-6.61,7.1,36.94,36.94,0,0,1-9.86,5.69,32.88,32.88,0,0,1-12.21,2.26,37.41,37.41,0,0,1-20.74-5.94,41.79,41.79,0,0,1-14.55-16.3,50.78,50.78,0,0,1-5.35-23.58q0-13.55,5.35-23.83a41.45,41.45,0,0,1,14.47-16.14,38.48,38.48,0,0,1,33.61-3.51,38.51,38.51,0,0,1,10.62,6,31.07,31.07,0,0,1,7,7.77,15,15,0,0,1,2.51,7.78l-5.18.5V72a8.53,8.53,0,0,1,2.34-6A7.87,7.87,0,0,1,271.61,63.48ZM237.5,139.06a24.09,24.09,0,0,0,13.79-4,27.15,27.15,0,0,0,9.28-11,37.58,37.58,0,0,0,0-31,27.11,27.11,0,0,0-9.28-10.87,25.54,25.54,0,0,0-27.51,0,26.91,26.91,0,0,0-9.36,10.87,37.58,37.58,0,0,0,0,31,27.15,27.15,0,0,0,9.28,11A24.08,24.08,0,0,0,237.5,139.06Z"/><path class="cls-1" d="M310.41,53.11q-4.86,0-7-1.76t-2.17-5.93V42.74c0-2.78.78-4.74,2.34-5.85s3.9-1.67,7-1.67c3.35,0,5.74.58,7.19,1.75s2.18,3.09,2.18,5.77v2.68c0,2.9-.75,4.9-2.26,6S313.75,53.11,310.41,53.11Zm8.52,91.14a8.42,8.42,0,0,1-2.34,6.1,8.59,8.59,0,0,1-11.95,0,8.25,8.25,0,0,1-2.43-6.1V72.67a8.27,8.27,0,0,1,2.43-6.1,8.59,8.59,0,0,1,11.95,0,8.44,8.44,0,0,1,2.34,6.1Z"/><path class="cls-1" d="M379.8,62.81a60.1,60.1,0,0,1,16,1.92,28.42,28.42,0,0,1,11,5.35,10.23,10.23,0,0,1,4,8A8.78,8.78,0,0,1,409,83.29a5.73,5.73,0,0,1-4.93,2.43,8.76,8.76,0,0,1-4.1-.84,14.66,14.66,0,0,1-2.92-2,22,22,0,0,0-3.35-2.35,19.25,19.25,0,0,0-5.43-1.67,36.23,36.23,0,0,0-6.44-.67,28.29,28.29,0,0,0-15.3,4,27.62,27.62,0,0,0-10,10.87,33,33,0,0,0-3.59,15.55,33.07,33.07,0,0,0,3.59,15.55,28.24,28.24,0,0,0,9.87,10.87,26.6,26.6,0,0,0,14.63,4,37.84,37.84,0,0,0,8.28-.75,19.82,19.82,0,0,0,9.78-5,6.78,6.78,0,0,1,4.85-1.59,7,7,0,0,1,5.6,2.26,8.36,8.36,0,0,1,1.93,5.6q0,3.69-4.43,7.11a35.57,35.57,0,0,1-11.79,5.6A57.13,57.13,0,0,1,379,154.45q-13.05,0-22.66-6A40.8,40.8,0,0,1,341.42,132a51,51,0,0,1-5.26-23.41,49,49,0,0,1,5.51-23.5,42,42,0,0,1,15.39-16.3A42.73,42.73,0,0,1,379.8,62.81Z"/><path class="cls-1" d="M467.76,154.45q-13.71,0-24-5.77a40.28,40.28,0,0,1-15.89-15.89,46.93,46.93,0,0,1-5.6-23.16q0-14.72,5.93-25.17a42.3,42.3,0,0,1,15.56-16,39.77,39.77,0,0,1,20.31-5.6,38,38,0,0,1,15.47,3.26,41.73,41.73,0,0,1,13.13,9,43.63,43.63,0,0,1,9,13.54,44.62,44.62,0,0,1,3.51,17,7.51,7.51,0,0,1-2.67,5.52,8.68,8.68,0,0,1-5.86,2.17H431.81l-4-14.21h62.87l-3.17,3V97.92a18.83,18.83,0,0,0-4-10.28,24.07,24.07,0,0,0-8.61-6.86,24.92,24.92,0,0,0-10.79-2.42,30,30,0,0,0-9.7,1.59,21,21,0,0,0-8.19,5.1,25.73,25.73,0,0,0-5.69,9.28,40.83,40.83,0,0,0-2.17,14.3,32.2,32.2,0,0,0,3.85,16.05,27.55,27.55,0,0,0,10.36,10.62,28.58,28.58,0,0,0,14.55,3.76,34.4,34.4,0,0,0,10-1.25,25.07,25.07,0,0,0,6.69-3.1q2.67-1.83,4.68-3.51a10.31,10.31,0,0,1,5-1.5,6.68,6.68,0,0,1,5,2.09,6.88,6.88,0,0,1,2,4.93q0,3.67-3.68,6.69a40.38,40.38,0,0,1-12.46,7.69A42.46,42.46,0,0,1,467.76,154.45Z"/><path class="cls-1" d="M594.69,29a8.16,8.16,0,0,1,8.36,8.53V144.25a8.25,8.25,0,0,1-2.43,6.1,8.59,8.59,0,0,1-12,0,8.39,8.39,0,0,1-2.35-6.1v-12l3.35.16a12.87,12.87,0,0,1-2.43,6.78,33.1,33.1,0,0,1-6.6,7.27,35.88,35.88,0,0,1-9.87,5.77,32.88,32.88,0,0,1-12.21,2.26,37.51,37.51,0,0,1-20.65-5.94,41.63,41.63,0,0,1-14.63-16.22,50.5,50.5,0,0,1-5.35-23.66A50.54,50.54,0,0,1,523.28,85a42.18,42.18,0,0,1,14.47-16.22,37.84,37.84,0,0,1,33.44-3.59,38.51,38.51,0,0,1,10.62,6,32.77,32.77,0,0,1,7.11,7.77,14.76,14.76,0,0,1,2.59,7.78l-5.19.5V37.56a8.43,8.43,0,0,1,2.35-6.11A8,8,0,0,1,594.69,29Zm-34.12,110a24.1,24.1,0,0,0,13.8-4,27.33,27.33,0,0,0,9.28-10.87A35,35,0,0,0,587,108.63a35,35,0,0,0-3.34-15.55,27.19,27.19,0,0,0-9.28-10.87,25.54,25.54,0,0,0-27.51,0,26.93,26.93,0,0,0-9.37,10.87,35,35,0,0,0-3.34,15.55,35,35,0,0,0,3.34,15.55,27.07,27.07,0,0,0,9.37,10.87A24.17,24.17,0,0,0,560.57,139.06Z"/><path class="cls-1" d="M709.9,108.79A46.58,46.58,0,0,1,704,132.46a44.53,44.53,0,0,1-77.09,0,46.49,46.49,0,0,1-5.94-23.67q0-13.55,5.94-23.83A44.37,44.37,0,0,1,704,85,46.9,46.9,0,0,1,709.9,108.79Zm-16.72,0a33,33,0,0,0-3.68-16,28.34,28.34,0,0,0-10-10.7,26.05,26.05,0,0,0-14.13-3.93,25.74,25.74,0,0,0-14,3.93,29,29,0,0,0-10,10.7,32.51,32.51,0,0,0-3.76,16,32.2,32.2,0,0,0,3.76,15.72,28.18,28.18,0,0,0,10,10.71,26.19,26.19,0,0,0,14,3.84,26.51,26.51,0,0,0,14.13-3.84,27.52,27.52,0,0,0,10-10.71A32.73,32.73,0,0,0,693.18,108.79Z"/><path class="cls-1" d="M157.39,214.92H107.47C48.21,214.92,0,166.76,0,107.57A107.64,107.64,0,0,1,107.47,0L171.7.3a8,8,0,0,1,0,16h0l-64.2-.3a91.46,91.46,0,0,0,0,182.92h49.92a8.58,8.58,0,0,0,.36-17.15h-50.1a74.3,74.3,0,0,1-.88-148.6h0l.86,0h49.7a24.58,24.58,0,0,1,10,47.05,24.27,24.27,0,0,1-9.43,2.1h-50.4a25.18,25.18,0,0,0,.13,50.35h.28c.55,0,1.06,0,1.44,0l.69,0,.34,0h45.78a8,8,0,0,1,0,16H110c-.77,0-1.48,0-2.12,0h-.26a41.18,41.18,0,0,1-.12-82.35h49.86a8.49,8.49,0,0,0,3.46-.73,8.58,8.58,0,0,0-3.46-16.43l-49.83,0a58.31,58.31,0,0,0,.09,116.61h50.61a24.58,24.58,0,0,1-.87,49.14Z"/></g></g></svg>