<svg xmlns="http://www.w3.org/2000/svg" viewBox="0 0 870.12 942.06"><defs><style>.cls-1{fill:#1e1e1e09;}</style></defs><g id="Capa_2" data-name="Capa 2"><g id="Capa_1-2" data-name="Capa 1"><path class="cls-1" d="M287.27,920.12c-23.88,0-44.11-18.15-45.88-41.93a44.68,44.68,0,0,1,11.16-33,46.29,46.29,0,0,1,31.52-15.6c21.85-1.62,41.95,12.21,47.82,32.9l-14.27,4c-3.95-14-17.6-23.27-32.45-22.16A31.55,31.55,0,0,0,263.68,855a29.93,29.93,0,0,0-7.5,22.14c1.25,16.78,16.27,29.39,33.51,28.11A31.23,31.23,0,0,0,317.27,884l14.08,4.64A46,46,0,0,1,290.79,920C289.61,920.08,288.44,920.12,287.27,920.12Z"/><path class="cls-1" d="M317.25,115.54c-30.43,0-56.2-23.12-58.45-53.41A56.87,56.87,0,0,1,273,20,59,59,0,0,1,313.16.16c27.83-2,53.45,15.56,60.92,41.91l-18.17,5.16c-5-17.76-22.43-29.63-41.35-28.23a40.22,40.22,0,0,0-27.37,13.53,38.13,38.13,0,0,0-9.55,28.2c1.59,21.38,20.72,37.43,42.69,35.81a39.75,39.75,0,0,0,35.12-27l17.95,5.91a58.61,58.61,0,0,1-51.67,40C320.22,115.49,318.73,115.54,317.25,115.54Z"/><path class="cls-1" d="M716.58,941.35c-23.88,0-44.11-18.15-45.88-41.93a44.64,44.64,0,0,1,11.16-33,46.29,46.29,0,0,1,31.51-15.6c21.85-1.62,42,12.21,47.83,32.9l-14.27,4c-3.95-13.94-17.6-23.26-32.46-22.16A31.6,31.6,0,0,0,693,876.18a29.93,29.93,0,0,0-7.5,22.14c1.25,16.78,16.27,29.39,33.51,28.11a31.23,31.23,0,0,0,27.58-21.21l14.08,4.64a46,46,0,0,1-40.56,31.36C718.92,941.31,717.75,941.35,716.58,941.35Z"/><path class="cls-1" d="M489.26,115.87c-23.89,0-44.12-18.15-45.89-41.93a44.68,44.68,0,0,1,11.16-33,46.29,46.29,0,0,1,31.52-15.6C507.9,23.68,528,37.51,533.87,58.2l-14.27,4c-4-14-17.6-23.27-32.45-22.16A31.55,31.55,0,0,0,465.66,50.7a29.93,29.93,0,0,0-7.5,22.14c1.25,16.78,16.27,29.39,33.51,28.11a31.22,31.22,0,0,0,27.58-21.21l14.08,4.64a46,46,0,0,1-40.56,31.36C491.59,115.83,490.42,115.87,489.26,115.87Z"/><rect class="cls-1" x="14.83" y="24.46" width="14.83" height="92.12"/><rect class="cls-1" x="169.7" y="24.46" width="14.83" height="92.12"/><path class="cls-1" d="M99.38,581.48c-23.89,0-44.12-18.15-45.88-41.93a44.67,44.67,0,0,1,11.15-33,46.29,46.29,0,0,1,31.52-15.6c21.85-1.62,42,12.21,47.82,32.9l-14.26,4c-4-13.94-17.61-23.26-32.46-22.16a31.56,31.56,0,0,0-21.48,10.62,29.89,29.89,0,0,0-7.5,22.14c1.24,16.78,16.26,29.39,33.5,28.11a31.22,31.22,0,0,0,27.58-21.21L143.46,550a46,46,0,0,1-40.57,31.36C101.71,581.44,100.54,581.48,99.38,581.48Z"/><path class="cls-1" d="M157.87,833.47c-23.88,0-44.11-18.15-45.88-41.93a44.62,44.62,0,0,1,11.16-33,46.28,46.28,0,0,1,31.51-15.61c21.85-1.61,42,12.22,47.83,32.9l-14.27,4.05c-3.95-13.94-17.6-23.26-32.46-22.16a31.52,31.52,0,0,0-21.48,10.62,29.93,29.93,0,0,0-7.5,22.14c1.25,16.78,16.27,29.38,33.51,28.11a31.2,31.2,0,0,0,27.57-21.22L202,802a46,46,0,0,1-40.56,31.37C160.21,833.43,159,833.47,157.87,833.47Z"/><path class="cls-1" d="M356.1,732.53c-36.09,0-66.66-27.43-69.33-63.36a67.49,67.49,0,0,1,16.86-49.93,70,70,0,0,1,47.62-23.58c33-2.44,63.4,18.46,72.27,49.72L402,651.49c-6-21.07-26.6-35.15-49-33.48a47.68,47.68,0,0,0-32.46,16,45.23,45.23,0,0,0-11.33,33.46c1.88,25.36,24.58,44.4,50.63,42.48a47.18,47.18,0,0,0,41.67-32.07l21.29,7c-8.79,26.68-32.85,45.28-61.3,47.39C359.63,732.47,357.86,732.53,356.1,732.53Z"/><rect class="cls-1" y="641.2" width="14.83" height="92.12"/><rect class="cls-1" x="786.62" y="291.59" width="14.83" height="92.12"/><rect class="cls-1" x="715.89" y="628.25" width="24.96" height="155.02"/><rect class="cls-1" y="291.59" width="14.83" height="92.12"/><rect class="cls-1" x="169.7" y="595.14" width="14.83" height="92.12"/><rect class="cls-1" x="416.11" y="849.94" width="14.83" height="92.12"/><path class="cls-1" d="M223,408.27c-23.88,0-44.11-18.15-45.88-41.93a44.68,44.68,0,0,1,11.16-33,46.29,46.29,0,0,1,31.52-15.6c21.85-1.62,41.95,12.21,47.82,32.9l-14.27,4c-3.95-13.94-17.6-23.26-32.45-22.15a31.55,31.55,0,0,0-21.49,10.61,29.93,29.93,0,0,0-7.5,22.14c1.25,16.78,16.27,29.39,33.51,28.11A31.23,31.23,0,0,0,253,372.14L267,376.78a46,46,0,0,1-40.56,31.36C225.3,408.23,224.13,408.27,223,408.27Z"/><path class="cls-1" d="M378.07,270.42c-23.88,0-44.11-18.15-45.88-41.93a44.64,44.64,0,0,1,11.16-33,46.29,46.29,0,0,1,31.51-15.6c21.85-1.62,42,12.21,47.83,32.9l-14.27,4c-3.95-13.94-17.6-23.26-32.46-22.15a31.55,31.55,0,0,0-21.48,10.61,29.93,29.93,0,0,0-7.5,22.14c1.25,16.78,16.27,29.39,33.51,28.11a31.23,31.23,0,0,0,27.58-21.21l14.08,4.64a46,46,0,0,1-40.56,31.36C380.41,270.38,379.24,270.42,378.07,270.42Z"/><path class="cls-1" d="M834.17,829.42c-15.85,0-29.28-12-30.45-27.83a29.61,29.61,0,0,1,7.4-21.92,30.85,30.85,0,0,1,52.66,11.47l-9.47,2.69a20.72,20.72,0,0,0-21.54-14.71,21,21,0,0,0-14.26,7,19.86,19.86,0,0,0-5,14.69c.83,11.14,10.8,19.51,22.24,18.66a20.71,20.71,0,0,0,18.3-14.08l9.35,3.08a30.52,30.52,0,0,1-26.92,20.81C835.72,829.39,834.94,829.42,834.17,829.42Z"/><path class="cls-1" d="M650.74,291.59c-23.89,0-44.11-18.15-45.88-41.93a44.62,44.62,0,0,1,11.16-33A46.26,46.26,0,0,1,647.53,201c21.85-1.61,42,12.21,47.82,32.9L681.09,238c-4-13.94-17.6-23.26-32.46-22.16a31.47,31.47,0,0,0-21.48,10.62,29.89,29.89,0,0,0-7.5,22.14c1.24,16.78,16.27,29.38,33.51,28.11a31.21,31.21,0,0,0,27.57-21.22l14.09,4.64a46,46,0,0,1-40.57,31.37C653.08,291.55,651.9,291.59,650.74,291.59Z"/><path class="cls-1" d="M524.27,450.78c-28.66,0-52.94-21.78-55.06-50.32a53.61,53.61,0,0,1,13.39-39.65,55.55,55.55,0,0,1,37.82-18.73c26.23-1.94,50.36,14.66,57.4,39.48l-17.12,4.86c-4.75-16.73-21.13-27.92-39-26.59A37.83,37.83,0,0,0,496,372.57a35.91,35.91,0,0,0-9,26.57c1.5,20.14,19.52,35.27,40.22,33.74a37.47,37.47,0,0,0,33.09-25.47l16.9,5.57a55.19,55.19,0,0,1-48.68,37.64C527.08,450.73,525.67,450.78,524.27,450.78Z"/><path class="cls-1" d="M591.25,855.88c-29.79,0-55-22.64-57.22-52.29a55.66,55.66,0,0,1,13.91-41.2,57.74,57.74,0,0,1,39.31-19.47c27.24-2,52.32,15.23,59.64,41l-17.8,5c-4.93-17.39-22-29-40.47-27.63a39.34,39.34,0,0,0-26.8,13.24,37.33,37.33,0,0,0-9.35,27.61c1.56,20.92,20.29,36.65,41.79,35.06a38.93,38.93,0,0,0,34.39-26.46l17.56,5.78a57.36,57.36,0,0,1-50.58,39.12C594.16,855.83,592.7,855.88,591.25,855.88Z"/><path class="cls-1" d="M802.5,574.71c-36.2,0-66.86-27.51-69.54-63.55a67.72,67.72,0,0,1,16.91-50.07,70.16,70.16,0,0,1,47.77-23.65c33.11-2.45,63.59,18.5,72.48,49.86l-21.62,6.13c-6-21.13-26.68-35.25-49.19-33.58a47.82,47.82,0,0,0-32.57,16.09,45.37,45.37,0,0,0-11.36,33.56c1.89,25.43,24.65,44.53,50.78,42.6A47.32,47.32,0,0,0,848,519.94l21.34,7c-8.81,26.75-32.94,45.41-61.47,47.53C806,574.65,804.26,574.71,802.5,574.71Z"/><rect class="cls-1" x="113.4" y="179.72" width="20.01" height="124.31"/><rect class="cls-1" x="367.56" y="383.71" width="17.24" height="107.07"/><rect class="cls-1" x="650.04" width="14.83" height="92.12"/><rect class="cls-1" x="818.88" y="97.94" width="14.83" height="92.12"/><rect class="cls-1" x="533.87" y="535.42" width="14.83" height="92.12"/><rect class="cls-1" x="45.96" y="849.94" width="14.83" height="92.12"/><path class="cls-1" d="M761.66,60.19c-15.85,0-29.27-12-30.45-27.82a29.59,29.59,0,0,1,7.41-21.93,30.84,30.84,0,0,1,52.65,11.48L781.8,24.6A20.7,20.7,0,0,0,760.26,9.9a20.93,20.93,0,0,0-14.26,7,19.86,19.86,0,0,0-5,14.7c.82,11.13,10.79,19.5,22.23,18.65a20.71,20.71,0,0,0,18.3-14.08l9.35,3.08A30.52,30.52,0,0,1,764,60.11C763.21,60.17,762.43,60.19,761.66,60.19Z"/></g></g></svg>