<?xml version="1.0" encoding="iso-8859-1"?>
<!-- Generator: Adobe Illustrator 17.1.0, SVG Export Plug-In . SVG Version: 6.00 Build 0)  -->
<!DOCTYPE svg PUBLIC "-//W3C//DTD SVG 1.1//EN" "http://www.w3.org/Graphics/SVG/1.1/DTD/svg11.dtd">
<svg version="1.1" id="Capa_1" xmlns="http://www.w3.org/2000/svg" xmlns:xlink="http://www.w3.org/1999/xlink" x="0px" y="0px"
	 viewBox="0 0 442 442" style="enable-background:new 0 0 442 442;" xml:space="preserve">
<g>
	<path d="M407.122,21.618H34.878C15.646,21.618,0,37.264,0,56.496v245.987c0,19.232,15.646,34.878,34.878,34.878h125.541v63.021
		h-47.225c-5.522,0-10,4.477-10,10s4.478,10,10,10h215.611c5.522,0,10-4.477,10-10s-4.478-10-10-10h-47.225v-63.021h125.541
		c19.231,0,34.878-15.646,34.878-34.878V56.496C442,37.264,426.354,21.618,407.122,21.618z M34.878,41.618h372.244
		c8.204,0,14.878,6.674,14.878,14.878v217.631H20V56.496C20,48.292,26.674,41.618,34.878,41.618z M261.581,400.382h-81.162v-63.021
		h81.162V400.382z M407.122,317.361H34.878c-8.204,0-14.878-6.674-14.878-14.878v-8.356h402v8.356
		C422,310.687,415.326,317.361,407.122,317.361z"/>
	<path d="M154.078,214.187h133.844c5.522,0,10-4.477,10-10v-92.629c0-5.523-4.478-10-10-10H154.078c-5.522,0-10,4.477-10,10v92.629
		C144.078,209.709,148.556,214.187,154.078,214.187z M164.078,121.558h113.844v72.629H164.078V121.558z"/>
	<path d="M317.553,121.558h7.002c5.522,0,10-4.477,10-10s-4.478-10-10-10h-7.002c-5.522,0-10,4.477-10,10
		S312.03,121.558,317.553,121.558z"/>
	<path d="M287.922,91.926c5.522,0,10-4.477,10-10v-7.001c0-5.523-4.478-10-10-10s-10,4.477-10,10v7.001
		C277.922,87.449,282.399,91.926,287.922,91.926z"/>
	<path d="M317.553,214.187h7.002c5.522,0,10-4.477,10-10s-4.478-10-10-10h-7.002c-5.522,0-10,4.477-10,10
		S312.03,214.187,317.553,214.187z"/>
	<path d="M287.922,223.818c-5.522,0-10,4.477-10,10v7.001c0,5.523,4.478,10,10,10s10-4.477,10-10v-7.001
		C297.922,228.295,293.444,223.818,287.922,223.818z"/>
	<path d="M117.445,121.558h7.002c5.522,0,10-4.477,10-10s-4.478-10-10-10h-7.002c-5.522,0-10,4.477-10,10
		S111.923,121.558,117.445,121.558z"/>
	<path d="M154.078,91.926c5.522,0,10-4.477,10-10v-7.001c0-5.523-4.478-10-10-10s-10,4.477-10,10v7.001
		C144.078,87.449,148.556,91.926,154.078,91.926z"/>
	<path d="M117.445,214.187h7.002c5.522,0,10-4.477,10-10s-4.478-10-10-10h-7.002c-5.522,0-10,4.477-10,10
		S111.923,214.187,117.445,214.187z"/>
	<path d="M154.078,250.819c5.522,0,10-4.477,10-10v-7.001c0-5.523-4.478-10-10-10s-10,4.477-10,10v7.001
		C144.078,246.342,148.556,250.819,154.078,250.819z"/>
</g>
<g>
</g>
<g>
</g>
<g>
</g>
<g>
</g>
<g>
</g>
<g>
</g>
<g>
</g>
<g>
</g>
<g>
</g>
<g>
</g>
<g>
</g>
<g>
</g>
<g>
</g>
<g>
</g>
<g>
</g>
</svg>
