<svg xmlns="http://www.w3.org/2000/svg" viewBox="0 0 184.45 217.4"><defs><style>.cls-1{fill:#45b4d1;}</style></defs><g id="Capa_2" data-name="Capa 2"><g id="Capa_1-2" data-name="Capa 1"><path class="cls-1" d="M158.63,217.4H108.71C48.77,217.4,0,168.69,0,108.81A108.88,108.88,0,0,1,108.71,0L173,.3a9.24,9.24,0,0,1,0,18.48h0l-64.19-.3a90.22,90.22,0,0,0,0,180.44h49.92a7.33,7.33,0,0,0,.33-14.66H108.9a75.54,75.54,0,0,1-1.06-151.08h0l1,0h49.69a25.82,25.82,0,0,1,.58,51.64h-50.4a23.94,23.94,0,0,0,.13,47.87h.26c.53,0,1,0,1.37,0l.83-.06.37.05h45.69a9.24,9.24,0,1,1,0,18.48H111.29c-.79,0-1.5,0-2.15,0h-.24a42.42,42.42,0,0,1-.13-84.84h49.86a7.27,7.27,0,0,0,3-.62,7.34,7.34,0,0,0-3-14.06l-49.83,0a57.07,57.07,0,0,0,.1,114.13h50.64a25.82,25.82,0,0,1-.91,51.62Z"/></g></g></svg>