<svg xmlns="http://www.w3.org/2000/svg" xmlns:xlink="http://www.w3.org/1999/xlink" viewBox="0 0 729.42 198.13"><defs><style>.cls-1{fill:url(#Degradado_sin_nombre_17);}.cls-2{fill:url(#Degradado_sin_nombre_17-2);}</style><linearGradient id="Degradado_sin_nombre_17" x1="-3.77" y1="177.37" x2="123.34" y2="77.26" gradientUnits="userSpaceOnUse"><stop offset="0" stop-color="#00e7ef"/><stop offset="1" stop-color="#00e789"/></linearGradient><linearGradient id="Degradado_sin_nombre_17-2" x1="-24.42" y1="128.13" x2="92.51" y2="36.04" xlink:href="#Degradado_sin_nombre_17"/></defs><g id="Capa_2" data-name="Capa 2"><g id="Capa_1-2" data-name="Capa 1"><path d="M284.33,9a28.67,28.67,0,0,1,12.89,10.71,30,30,0,0,1,4.49,16.56,30,30,0,0,1-4.49,16.5,28.49,28.49,0,0,1-12.89,10.78,48.25,48.25,0,0,1-19.74,3.73H244.91V92.41H228.72V5.23h35.87A48.25,48.25,0,0,1,284.33,9Zm-4.42,40.1q5.47-4.49,5.48-12.83t-5.48-12.83q-5.48-4.47-16.07-4.48H244.91V53.55h18.93Q274.43,53.55,279.91,49.07Z"/><path d="M377.53,64.14H325.34a18.1,18.1,0,0,0,7.16,11.65q5.79,4.29,14.39,4.29,11,0,18.06-7.22l8.34,9.59A28.08,28.08,0,0,1,362,90.54a44.91,44.91,0,0,1-34.75-1.62,31.36,31.36,0,0,1-12.89-12.14,34.29,34.29,0,0,1-4.55-17.62,34.87,34.87,0,0,1,4.42-17.5,31.34,31.34,0,0,1,12.27-12.14,35.77,35.77,0,0,1,17.69-4.36,35,35,0,0,1,17.37,4.29,30.51,30.51,0,0,1,12,12.09,36.68,36.68,0,0,1,4.29,18C377.77,60.61,377.69,62.15,377.53,64.14ZM331.51,42a18.57,18.57,0,0,0-6.29,11.77H363a18.32,18.32,0,0,0-6.1-11.7,18.55,18.55,0,0,0-12.7-4.49A18.81,18.81,0,0,0,331.51,42Z"/><path d="M459.66,0V92.41h-15V83.82a24.12,24.12,0,0,1-9.53,7.1,32.31,32.31,0,0,1-12.51,2.36,35,35,0,0,1-17.25-4.23,30.35,30.35,0,0,1-12-12A35.92,35.92,0,0,1,389,59.16a35.56,35.56,0,0,1,4.36-17.81,30.52,30.52,0,0,1,12-12,35,35,0,0,1,17.25-4.23,31.72,31.72,0,0,1,12.08,2.24,24.32,24.32,0,0,1,9.34,6.73V0Zm-25,77.4a18.36,18.36,0,0,0,7.1-7.28,22.24,22.24,0,0,0,2.62-11,22.21,22.21,0,0,0-2.62-11,18.45,18.45,0,0,0-7.1-7.29,21.22,21.22,0,0,0-20.17,0,18.45,18.45,0,0,0-7.1,7.29,22.32,22.32,0,0,0-2.62,11,22.35,22.35,0,0,0,2.62,11,18.36,18.36,0,0,0,7.1,7.28,21.14,21.14,0,0,0,20.17,0Z"/><path d="M517.67,25.16V40a19.75,19.75,0,0,0-3.62-.37q-9.09,0-14.19,5.29t-5.11,15.25V92.41H479.18V25.91H494v9.71Q500.74,25.17,517.67,25.16Z"/><path d="M542,88.92a31.7,31.7,0,0,1-12.64-12.14,34.28,34.28,0,0,1-4.54-17.62,34,34,0,0,1,4.54-17.56A31.83,31.83,0,0,1,542,29.52a40.35,40.35,0,0,1,36.49,0A31.92,31.92,0,0,1,591.09,41.6a34,34,0,0,1,4.54,17.56,34.28,34.28,0,0,1-4.54,17.62,31.8,31.8,0,0,1-12.65,12.14,40.35,40.35,0,0,1-36.49,0Zm32.38-14.69q5.61-5.73,5.61-15.07t-5.61-15.07a20.37,20.37,0,0,0-28.33,0q-5.55,5.73-5.54,15.07T546,74.23a20.37,20.37,0,0,0,28.33,0Z"/><path d="M245.22,192.34a42.68,42.68,0,0,1-16.68-16,46.76,46.76,0,0,1,.06-46.08,43.11,43.11,0,0,1,16.75-16,49.11,49.11,0,0,1,23.85-5.79,49.73,49.73,0,0,1,19.55,3.73A39.79,39.79,0,0,1,303.7,123l-10.46,9.84A30.52,30.52,0,0,0,270,122.65a32.61,32.61,0,0,0-16.07,3.93,28.23,28.23,0,0,0-11.08,10.89,33.36,33.36,0,0,0,0,31.64A28.26,28.26,0,0,0,253.88,180,32.71,32.71,0,0,0,270,183.93a30.33,30.33,0,0,0,23.29-10.34l10.46,10a39.78,39.78,0,0,1-15,10.83,50.21,50.21,0,0,1-19.61,3.74A49.12,49.12,0,0,1,245.22,192.34Z"/><path d="M365.94,136.66q7.79,7.05,7.78,21.24v39H359v-8.09a18.23,18.23,0,0,1-8.16,6.66,31.85,31.85,0,0,1-12.77,2.3A31.34,31.34,0,0,1,325,195.2a20.19,20.19,0,0,1-8.65-7.1,18,18,0,0,1-3.05-10.27A17.62,17.62,0,0,1,320,163.44q6.66-5.41,21-5.42h17.18v-1q0-7-4.17-10.71t-12.39-3.74a35.8,35.8,0,0,0-11,1.74,27.26,27.26,0,0,0-9.16,4.86l-6.1-11.33a37.72,37.72,0,0,1,12.58-6.1,55.68,55.68,0,0,1,15.57-2.12Q358.15,129.63,365.94,136.66Zm-14.2,47.08a14.49,14.49,0,0,0,6.41-7.66v-7.72H342.09q-13.45,0-13.45,8.84a7.94,7.94,0,0,0,3.36,6.73q3.36,2.49,9.34,2.49A20.06,20.06,0,0,0,351.74,183.74Z"/><path d="M393.49,116.74a9.2,9.2,0,0,1,0-13.33,10,10,0,0,1,7.1-2.68,10.3,10.3,0,0,1,7.1,2.56,8.23,8.23,0,0,1,2.87,6.41,9.37,9.37,0,0,1-2.81,6.91,9.67,9.67,0,0,1-7.16,2.81A10,10,0,0,1,393.49,116.74Zm-.74,13.64h15.57v66.5H392.75Z"/><path d="M438.89,193.39a31.92,31.92,0,0,1-12.82-12.14,35.86,35.86,0,0,1,0-35.18A32.15,32.15,0,0,1,438.83,134a38.87,38.87,0,0,1,18.62-4.36,36,36,0,0,1,17.25,4,25.89,25.89,0,0,1,11.15,11.46l-12,7a19.09,19.09,0,0,0-7.16-6.92,20.91,20.91,0,0,0-23.85,3.37q-5.73,5.67-5.73,15.13t5.67,15.13q5.65,5.67,14.51,5.67a19.53,19.53,0,0,0,9.4-2.31,19,19,0,0,0,7.16-6.91l12,7a27.05,27.05,0,0,1-11.27,11.52,35.14,35.14,0,0,1-17.13,4A39,39,0,0,1,438.89,193.39Z"/><path d="M562.37,168.61H510.19a18.1,18.1,0,0,0,7.16,11.65q5.79,4.29,14.39,4.29,10.95,0,18.06-7.22l8.34,9.59A28.08,28.08,0,0,1,546.81,195a44.91,44.91,0,0,1-34.75-1.62,31.36,31.36,0,0,1-12.89-12.14,34.29,34.29,0,0,1-4.55-17.62,34.87,34.87,0,0,1,4.42-17.5A31.34,31.34,0,0,1,511.31,134,35.77,35.77,0,0,1,529,129.63a34.85,34.85,0,0,1,17.37,4.3,30.42,30.42,0,0,1,12,12.08,36.68,36.68,0,0,1,4.29,18C562.62,165.08,562.54,166.62,562.37,168.61Zm-46-22.11a18.57,18.57,0,0,0-6.29,11.77H547.8a18.35,18.35,0,0,0-6.1-11.7,18.55,18.55,0,0,0-12.7-4.49A18.81,18.81,0,0,0,516.36,146.5Z"/><path d="M644.51,104.47v92.41h-15v-8.59a24.12,24.12,0,0,1-9.53,7.1,32.31,32.31,0,0,1-12.51,2.36,35,35,0,0,1-17.25-4.23,30.35,30.35,0,0,1-12-12,35.92,35.92,0,0,1-4.36-17.87,35.56,35.56,0,0,1,4.36-17.81,30.52,30.52,0,0,1,12-12,35,35,0,0,1,17.25-4.23,31.72,31.72,0,0,1,12.08,2.24,24.32,24.32,0,0,1,9.34,6.73V104.47Zm-25,77.4a18.36,18.36,0,0,0,7.1-7.28,24.23,24.23,0,0,0,0-21.92,18.45,18.45,0,0,0-7.1-7.29,21.22,21.22,0,0,0-20.17,0,18.45,18.45,0,0,0-7.1,7.29,24.23,24.23,0,0,0,0,21.92,18.36,18.36,0,0,0,7.1,7.28,21.14,21.14,0,0,0,20.17,0Z"/><path d="M675.74,193.39a31.7,31.7,0,0,1-12.64-12.14,36.28,36.28,0,0,1,0-35.18A31.83,31.83,0,0,1,675.74,134a40.35,40.35,0,0,1,36.49,0,31.83,31.83,0,0,1,12.64,12.08,36.28,36.28,0,0,1,0,35.18,31.7,31.7,0,0,1-12.64,12.14,40.35,40.35,0,0,1-36.49,0Zm32.38-14.69q5.61-5.73,5.6-15.07t-5.6-15.07a19,19,0,0,0-14.2-5.73,18.79,18.79,0,0,0-14.13,5.73q-5.55,5.73-5.55,15.07t5.55,15.07a18.79,18.79,0,0,0,14.13,5.73A19,19,0,0,0,708.12,178.7Z"/><path class="cls-1" d="M105.83,159.69c-36.26,0-67-27.56-69.65-63.65A67.79,67.79,0,0,1,53.12,45.89,70.26,70.26,0,0,1,101,22.2c33.16-2.45,63.69,18.54,72.59,49.94L151.9,78.28c-6-21.16-26.72-35.31-49.27-33.63A47.81,47.81,0,0,0,70,60.76,45.43,45.43,0,0,0,58.63,94.37C60.53,119.84,83.33,139,109.5,137a47.39,47.39,0,0,0,41.86-32.21l21.38,7a69.82,69.82,0,0,1-61.57,47.61C109.38,159.62,107.59,159.69,105.83,159.69Z"/><rect class="cls-2" y="5.23" width="22.51" height="189.6"/></g></g></svg>