<svg xmlns="http://www.w3.org/2000/svg" xmlns:xlink="http://www.w3.org/1999/xlink" viewBox="0 0 597.4 91.18"><defs><style>.cls-1{fill:url(#Degradado_sin_nombre_17);}.cls-2{fill:url(#Degradado_sin_nombre_17-2);}.cls-3{fill:url(#Degradado_sin_nombre_17-3);}.cls-4{fill:url(#Degradado_sin_nombre_17-4);}.cls-5{fill:url(#Degradado_sin_nombre_17-5);}.cls-6{fill:url(#Degradado_sin_nombre_17-6);}.cls-7{fill:url(#Degradado_sin_nombre_17-7);}.cls-8{fill:url(#Degradado_sin_nombre_17-8);}.cls-9{fill:url(#Degradado_sin_nombre_17-9);}.cls-10{fill:url(#Degradado_sin_nombre_17-10);}</style><linearGradient id="Degradado_sin_nombre_17" x1="-5.25" y1="53.23" x2="602.52" y2="-33.59" gradientUnits="userSpaceOnUse"><stop offset="0" stop-color="#00e7ef"/><stop offset="1" stop-color="#00e789"/></linearGradient><linearGradient id="Degradado_sin_nombre_17-2" x1="-1.49" y1="79.53" x2="606.27" y2="-7.29" xlink:href="#Degradado_sin_nombre_17"/><linearGradient id="Degradado_sin_nombre_17-3" x1="6.5" y1="135.49" x2="614.27" y2="48.67" xlink:href="#Degradado_sin_nombre_17"/><linearGradient id="Degradado_sin_nombre_17-4" x1="-3.81" y1="63.27" x2="603.95" y2="-23.56" xlink:href="#Degradado_sin_nombre_17"/><linearGradient id="Degradado_sin_nombre_17-5" x1="1.57" y1="100.97" x2="609.34" y2="14.15" xlink:href="#Degradado_sin_nombre_17"/><linearGradient id="Degradado_sin_nombre_17-6" x1="4.87" y1="124.03" x2="612.63" y2="37.21" xlink:href="#Degradado_sin_nombre_17"/><linearGradient id="Degradado_sin_nombre_17-7" x1="1.61" y1="101.26" x2="609.38" y2="14.44" xlink:href="#Degradado_sin_nombre_17"/><linearGradient id="Degradado_sin_nombre_17-8" x1="3.91" y1="117.33" x2="611.67" y2="30.5" xlink:href="#Degradado_sin_nombre_17"/><linearGradient id="Degradado_sin_nombre_17-9" x1="-3.13" y1="68.08" x2="604.64" y2="-18.74" xlink:href="#Degradado_sin_nombre_17"/><linearGradient id="Degradado_sin_nombre_17-10" x1="-2.75" y1="70.75" x2="605.02" y2="-16.07" xlink:href="#Degradado_sin_nombre_17"/></defs><g id="Capa_2" data-name="Capa 2"><g id="Capa_1-2" data-name="Capa 1"><path class="cls-1" d="M45,1a45.1,45.1,0,0,1-.46,90.19C19.52,91.06-.13,70.73,0,45.08.13,20.83,20.5.88,45,1Z"/><path class="cls-2" d="M281.15,88.3H251.5c5.23-2.2,5.75-6.32,5.71-11.14-.15-19.64-.06-39.29-1.07-59.28Q241,53.22,225.92,88.56l-1.58,0c-9.8-23-19.61-46-29.91-70.15C194.2,20.7,194,21.85,194,23c0,18.33.08,36.65-.08,55,0,4.72,1.11,8.18,6,10H183.76c6-2,5.78-7,5.78-11.82,0-20.32,0-40.65,0-61,0-4.81-.65-9-6.26-11.2,8.32,0,16.65-.12,25,.15,1.06,0,2.44,1.94,3,3.26C218,22.81,224.5,38.28,231.09,53.72c.65,1.52,1.34,3,2.41,5.44,1.53-3.46,2.77-6.2,3.95-9,6-14.08,12.07-28.12,17.87-42.27,1.29-3.15,3-4.18,6.29-4,6.64.27,13.3.08,20.48.45-7.49,2.13-6.53,8-6.54,13.3,0,19.83,0,39.65,0,59.47C275.51,81.86,275.72,86.34,281.15,88.3Z"/><path class="cls-3" d="M498.45,31.41l24.46-6.75c.15,3,.28,5.5.46,9,4.45-6,9.62-9.72,16.81-9.38s12.86,3.19,15.87,11c3.3-5.66,7.34-9.2,13.14-10.55,12.23-2.86,21.36,4.82,21.6,18.6.2,11.5,0,23,.05,34.49,0,6.5.08,6.62,6.56,10.31H572.74c-.07-1.62-.23-3.38-.23-5.14,0-12.33,0-24.66,0-37a34.87,34.87,0,0,0-.68-7.44c-1-4.39-4.2-6.48-8.53-5.66-4.09.77-6.38,3.15-6.35,7.58.09,13-.1,26,.24,39,.07,2.89,1.82,5.73,2.83,8.68H538.85V75.92c0-10.16,0-20.32,0-30.48A29.68,29.68,0,0,0,538,38c-1.06-3.92-4-5.65-8-5.18s-6.65,2.94-6.71,6.84c-.21,13.82-.23,27.66.13,41.47.06,2.38,2.33,4.71,3.61,7.1H505V61.8c0-6.16-.16-12.33.05-18.49C505.25,38,505.09,33.17,498.45,31.41Z"/><path class="cls-4" d="M94.13,45.85c-.16-10.28,1.48-20.26,6.22-29.48,3.37-6.55,7.76-12.63,16-12.68,8,0,12.67,5.65,15.71,12.19,9.4,20.2,9.29,40.55-.18,60.74a26.5,26.5,0,0,1-4.94,6.85c-6.45,6.74-14.53,6.78-21,0C97.68,75,95.5,64,94.17,52.84A58.19,58.19,0,0,1,94.13,45.85Z"/><path class="cls-5" d="M377.78,24.68c1.72-12.08.57-14.33-10.45-16.13L396.24,0V5.86c0,23.33,0,46.65,0,70,0,5.18.33,10,6.19,12.47H378.31l-.45-7.43c-.87.93-1.49,1.51-2,2.16-6.86,8.64-19.27,10.18-27.45,2.82-10.61-9.56-11.26-22.29-9.1-35.12,2-11.82,8.09-21.45,20.32-24.85C365.25,24.31,371.52,25,377.78,24.68Zm.27,29.45c0-6.15.33-12.32-.17-18.44-.19-2.38-1.71-5.83-3.56-6.62-2.27-1-6.36-.67-8.14.86a20.92,20.92,0,0,0-6,9.41,49.39,49.39,0,0,0-.41,28.52c1.07,3.69,2.94,7.69,5.69,10.15,2,1.75,6.28,2.11,9,1.3,1.69-.51,3.19-4.31,3.38-6.74C378.37,66.46,378.05,60.28,378.05,54.13Z"/><path class="cls-6" d="M433,31.61l24.49-7c.12,2.24.28,4,.29,5.69,0,13.48-.08,27,.1,40.45.09,6.73,3.28,10,8.75,9.7,4.66-.24,7.29-2.89,7.31-7.58,0-10.49-.05-21,0-31.47,0-4.26-.52-8-7-9.51l24.89-7.27c.1,2.19.25,3.91.25,5.62q0,23,0,46c0,5.06.28,9.88,6.31,12H474.21c-.13-2.28-.28-4.66-.48-8-4.53,6.4-9.72,10.29-17.25,10.07-9.69-.28-16-5.42-16.51-15.08-.63-11.12-.45-22.3-.49-33.44C439.46,37.12,438.61,33.19,433,31.61Z"/><path class="cls-7" d="M334.79,52h-37c-1.86,8.66,3.19,18.91,11,22.82,8.29,4.17,15.44,1.51,24.9-9.28,1.22,11.14-9.3,23.42-21.08,24.64-16.5,1.71-28.25-8.37-30.32-26.54-1.18-10.31,0-20.34,6.61-29,7.24-9.49,18.86-12.74,30.41-8.61C329.48,29.68,335.26,39,334.79,52Zm-15.06-3.59c-1-5.39-1.31-10.55-3-15.17-2.23-5.93-9.05-6.95-13.38-2.32-4.5,4.81-5.82,10.79-5.48,17.49Z"/><path class="cls-8" d="M409,88.28c0-15.73-.05-30.69,0-45.66,0-5-.58-9.3-6.73-10.92l24.92-7.16v5.87c0,15.3,0,30.6,0,45.9,0,5,.4,9.71,6.16,12Z"/><path class="cls-9" d="M159.39,49.22c-.94,7.14-2.19,17-3.58,26.85a11.85,11.85,0,0,1-1.68,4.64,7,7,0,0,1-3.41,3c-.65.17-2.44-1.73-2.8-3a97.17,97.17,0,0,1-3.64-14.92,150.13,150.13,0,0,1,.78-44.69,55.68,55.68,0,0,1,2.91-10c.46-1.19,1.95-2.74,3-2.76s2.68,1.52,3,2.69a106.09,106.09,0,0,1,3.77,15.4C158.65,33.09,158.75,39.77,159.39,49.22Z"/><path class="cls-10" d="M417.6.64a10,10,0,0,1,10,10.2,9.9,9.9,0,0,1-10.24,9.94,10.12,10.12,0,0,1-10.1-10.18A10.2,10.2,0,0,1,417.6.64Z"/></g></g></svg>