<svg xmlns="http://www.w3.org/2000/svg" xmlns:xlink="http://www.w3.org/1999/xlink" viewBox="0 0 3000 3500"><defs><style>.cls-1{fill:url(#binary2);}.cls-2{fill:none;}.cls-3{fill:#1e1e1e;}.cls-4{fill:#fff;}.cls-5{opacity:0.04;}.cls-6{fill:url(#binary2-7);}.cls-7{clip-path:url(#clip-path);}.cls-8{fill:url(#binary2-9);}.cls-9{clip-path:url(#clip-path-2);}.cls-10{clip-path:url(#clip-path-3);}</style><pattern id="binary2" data-name="binary2" width="2000" height="1000" patternTransform="translate(-652.31 93.41)" patternUnits="userSpaceOnUse" viewBox="0 0 2000 1000"><rect class="cls-2" width="2000" height="1000"/><rect class="cls-3" x="-500" y="499.65" width="1000" height="1000"/><path class="cls-4" d="M325.9,545C302,545,281.78,526.85,280,503.07a44.66,44.66,0,0,1,11.16-33,46.31,46.31,0,0,1,31.52-15.61c21.85-1.61,41.95,12.21,47.82,32.9l-14.27,4.05c-3.95-13.94-17.6-23.26-32.45-22.16a31.52,31.52,0,0,0-21.49,10.62A29.93,29.93,0,0,0,294.8,502c1.25,16.78,16.27,29.38,33.51,28.11a31.21,31.21,0,0,0,27.58-21.22L370,513.5a46,46,0,0,1-40.56,31.37C328.23,545,327.06,545,325.9,545Z"/><path class="cls-4" d="M65.73,719.52c-23.88,0-44.11-18.15-45.88-41.93a44.68,44.68,0,0,1,11.16-33,46.35,46.35,0,0,1,31.52-15.61c21.85-1.61,42,12.22,47.82,32.91l-14.27,4c-4-13.94-17.6-23.26-32.45-22.16a31.6,31.6,0,0,0-21.49,10.62,29.93,29.93,0,0,0-7.5,22.14c1.25,16.78,16.27,29.39,33.51,28.11a31.22,31.22,0,0,0,27.58-21.22L109.81,688a46,46,0,0,1-40.56,31.36C68.07,719.48,66.9,719.52,65.73,719.52Z"/><rect class="cls-4" x="363.1" y="895.23" width="14.83" height="92.12"/><path class="cls-4" d="M227.22,895.23c-23.89,0-44.11-18.15-45.88-41.93a44.6,44.6,0,0,1,11.16-33A46.22,46.22,0,0,1,224,804.66c21.85-1.61,42,12.21,47.82,32.9l-14.26,4.05c-4-14-17.6-23.26-32.46-22.16a31.5,31.5,0,0,0-21.48,10.61,29.89,29.89,0,0,0-7.5,22.14c1.24,16.78,16.26,29.39,33.51,28.12a31.24,31.24,0,0,0,27.57-21.22l14.09,4.64a46,46,0,0,1-40.57,31.36C229.56,895.19,228.38,895.23,227.22,895.23Z"/><path class="cls-4" d="M100.75,1054.43c-28.66,0-52.94-21.79-55.06-50.32a53.58,53.58,0,0,1,13.39-39.65A55.51,55.51,0,0,1,96.9,945.73c26.23-1.94,50.36,14.65,57.4,39.48l-17.12,4.86c-4.75-16.74-21.13-27.92-39-26.6a37.91,37.91,0,0,0-25.78,12.74,35.94,35.94,0,0,0-9,26.58c1.5,20.13,19.52,35.26,40.21,33.73a37.47,37.47,0,0,0,33.1-25.46l16.9,5.57A55.2,55.2,0,0,1,105,1054.27C103.56,1054.38,102.15,1054.43,100.75,1054.43Z"/><rect class="cls-4" x="226.52" y="603.65" width="14.83" height="92.12"/><rect class="cls-4" x="395.36" y="701.59" width="14.83" height="92.12"/><rect class="cls-3" x="500" y="999.65" width="1000" height="1000"/><path class="cls-4" d="M1325.9,1045c-23.89,0-44.12-18.15-45.89-41.93a44.66,44.66,0,0,1,11.16-33,46.31,46.31,0,0,1,31.52-15.61c21.85-1.61,42,12.21,47.82,32.9l-14.27,4c-4-13.94-17.6-23.26-32.45-22.16a31.52,31.52,0,0,0-21.49,10.62,29.93,29.93,0,0,0-7.5,22.14c1.25,16.78,16.27,29.38,33.51,28.11a31.21,31.21,0,0,0,27.58-21.22l14.08,4.64a46,46,0,0,1-40.56,31.37C1328.23,1045,1327.06,1045,1325.9,1045Z"/><rect class="cls-3" x="1500" y="499.65" width="1000" height="1000"/><path class="cls-4" d="M1675.86,614.45c-23.89,0-44.12-18.15-45.88-41.93a44.67,44.67,0,0,1,11.15-33,46.29,46.29,0,0,1,31.52-15.6c21.85-1.62,42,12.21,47.82,32.9l-14.26,4c-4-13.94-17.61-23.26-32.46-22.15a31.5,31.5,0,0,0-21.48,10.61,29.89,29.89,0,0,0-7.5,22.14c1.24,16.78,16.26,29.39,33.5,28.11a31.22,31.22,0,0,0,27.58-21.21l14.08,4.64a46,46,0,0,1-40.56,31.36C1678.19,614.41,1677,614.45,1675.86,614.45Z"/><path class="cls-4" d="M1893.73,684.65c-30.43,0-56.2-23.13-58.45-53.42a56.89,56.89,0,0,1,14.21-42.09,59.05,59.05,0,0,1,40.15-19.88c27.83-2,53.45,15.56,60.92,41.92l-18.17,5.15c-5-17.76-22.43-29.63-41.35-28.23a40.22,40.22,0,0,0-27.37,13.53,38.13,38.13,0,0,0-9.55,28.2c1.59,21.38,20.72,37.44,42.69,35.81a39.75,39.75,0,0,0,35.12-27l18,5.91a58.61,58.61,0,0,1-51.67,40C1896.7,684.59,1895.21,684.65,1893.73,684.65Z"/><rect class="cls-4" x="1591.31" y="628.11" width="14.83" height="92.12"/><rect class="cls-4" x="1746.18" y="628.11" width="14.83" height="92.12"/><rect class="cls-4" x="1576.48" y="895.23" width="14.83" height="92.12"/><path class="cls-4" d="M1799.44,1011.92c-23.88,0-44.11-18.15-45.88-41.93a44.68,44.68,0,0,1,11.16-33,46.35,46.35,0,0,1,31.52-15.61c21.85-1.61,42,12.22,47.82,32.9l-14.27,4c-4-13.94-17.6-23.26-32.45-22.16a31.52,31.52,0,0,0-21.49,10.62,29.93,29.93,0,0,0-7.5,22.14c1.25,16.78,16.27,29.38,33.51,28.11a31.22,31.22,0,0,0,27.58-21.22l14.08,4.64a46,46,0,0,1-40.56,31.37C1801.78,1011.88,1800.61,1011.92,1799.44,1011.92Z"/><path class="cls-4" d="M1954.55,874.07c-23.88,0-44.11-18.15-45.88-41.93a44.64,44.64,0,0,1,11.16-33,46.32,46.32,0,0,1,31.51-15.61c21.85-1.61,42,12.22,47.83,32.9l-14.27,4.05c-4-13.94-17.6-23.26-32.46-22.16A31.52,31.52,0,0,0,1931,808.9a29.93,29.93,0,0,0-7.5,22.14c1.25,16.78,16.27,29.38,33.51,28.11a31.22,31.22,0,0,0,27.58-21.22l14.08,4.64a46,46,0,0,1-40.56,31.37C1956.89,874,1955.72,874.07,1954.55,874.07Z"/><rect class="cls-4" x="1689.88" y="783.37" width="20.01" height="124.31"/><rect class="cls-4" x="1944.03" y="987.35" width="17.24" height="107.07"/><rect class="cls-3" x="-500" y="-500.35" width="1000" height="1000"/><rect class="cls-4" x="292.37" y="231.89" width="24.96" height="155.02"/><rect class="cls-4" x="-7.41" y="453.59" width="14.83" height="92.12"/><path class="cls-4" d="M410.65,433.07c-15.85,0-29.28-12.05-30.45-27.83a29.64,29.64,0,0,1,7.4-21.93,30.86,30.86,0,0,1,52.66,11.48l-9.47,2.69a20.71,20.71,0,0,0-21.54-14.71A20.94,20.94,0,0,0,395,389.82a19.84,19.84,0,0,0-5,14.69c.83,11.14,10.8,19.5,22.24,18.66a20.72,20.72,0,0,0,18.3-14.09l9.35,3.09A30.54,30.54,0,0,1,413,433C412.2,433,411.42,433.07,410.65,433.07Z"/><path class="cls-4" d="M100.75,54.43c-28.66,0-52.94-21.79-55.06-50.32A53.58,53.58,0,0,1,59.08-35.54,55.51,55.51,0,0,1,96.9-54.27c26.23-1.94,50.36,14.65,57.4,39.48L137.18-9.93c-4.75-16.74-21.13-27.92-39-26.6A37.91,37.91,0,0,0,72.44-23.79a35.94,35.94,0,0,0-9,26.58C64.94,22.92,83,38.05,103.65,36.52a37.47,37.47,0,0,0,33.1-25.46l16.9,5.57A55.2,55.2,0,0,1,105,54.27C103.56,54.38,102.15,54.43,100.75,54.43Z"/><path class="cls-4" d="M167.73,459.53c-29.79,0-55-22.64-57.22-52.29A55.67,55.67,0,0,1,124.42,366a57.77,57.77,0,0,1,39.3-19.46c27.25-2,52.33,15.23,59.65,41l-17.8,5c-4.93-17.39-21.95-29-40.47-27.64a39.38,39.38,0,0,0-26.8,13.24A37.34,37.34,0,0,0,129,405.86c1.56,20.93,20.29,36.65,41.79,35.06a38.93,38.93,0,0,0,34.39-26.46l17.56,5.79a57.37,57.37,0,0,1-50.58,39.12C170.64,459.47,169.18,459.53,167.73,459.53Z"/><path class="cls-4" d="M379,178.36c-36.2,0-66.86-27.51-69.54-63.55a67.66,67.66,0,0,1,16.91-50.07,70.13,70.13,0,0,1,47.77-23.66C407.23,38.64,437.71,59.59,446.6,91L425,97.08C419,76,398.3,61.83,375.78,63.5a47.78,47.78,0,0,0-32.56,16.09,45.32,45.32,0,0,0-11.36,33.55c1.89,25.43,24.65,44.54,50.78,42.61a47.33,47.33,0,0,0,41.8-32.16l21.34,7C437,157.38,412.84,176,384.31,178.16,382.52,178.29,380.74,178.36,379,178.36Z"/><rect class="cls-4" x="110.35" y="139.07" width="14.83" height="92.12"/><rect class="cls-3" x="500" y="-0.35" width="1000" height="1000"/><path class="cls-4" d="M675.86,114.45C652,114.45,631.74,96.3,630,72.52a44.67,44.67,0,0,1,11.15-33,46.29,46.29,0,0,1,31.52-15.6c21.85-1.62,42,12.21,47.82,32.9l-14.26,4c-4-13.94-17.61-23.26-32.46-22.15a31.5,31.5,0,0,0-21.48,10.61,29.89,29.89,0,0,0-7.5,22.14C646,88.2,661,100.81,678.27,99.53a31.22,31.22,0,0,0,27.58-21.21L719.93,83a46,46,0,0,1-40.56,31.36C678.19,114.41,677,114.45,675.86,114.45Z"/><path class="cls-4" d="M893.73,184.65c-30.43,0-56.2-23.13-58.45-53.42a56.89,56.89,0,0,1,14.21-42.09,59.05,59.05,0,0,1,40.15-19.88c27.83-2.05,53.45,15.56,60.92,41.92l-18.17,5.15C927.35,98.57,910,86.7,891,88.1a40.22,40.22,0,0,0-27.37,13.53,38.13,38.13,0,0,0-9.55,28.2c1.59,21.38,20.72,37.44,42.69,35.81a39.75,39.75,0,0,0,35.12-27l18,5.91a58.61,58.61,0,0,1-51.67,40C896.7,184.59,895.21,184.65,893.73,184.65Z"/><path class="cls-4" d="M1325.9,45C1302,45,1281.78,26.85,1280,3.07a44.66,44.66,0,0,1,11.16-33,46.31,46.31,0,0,1,31.52-15.61c21.85-1.61,42,12.21,47.82,32.9l-14.27,4c-4-13.94-17.6-23.26-32.45-22.16a31.52,31.52,0,0,0-21.49,10.62A29.93,29.93,0,0,0,1294.8,2c1.25,16.78,16.27,29.38,33.51,28.11a31.21,31.21,0,0,0,27.58-21.22L1370,13.5a46,46,0,0,1-40.56,31.37C1328.23,45,1327.06,45,1325.9,45Z"/><path class="cls-4" d="M1065.73,219.52c-23.88,0-44.11-18.15-45.88-41.93a44.68,44.68,0,0,1,11.16-33,46.35,46.35,0,0,1,31.52-15.61c21.85-1.61,42,12.22,47.82,32.91l-14.27,4c-3.95-13.94-17.6-23.26-32.45-22.16a31.6,31.6,0,0,0-21.49,10.62,29.93,29.93,0,0,0-7.5,22.14c1.25,16.78,16.27,29.39,33.51,28.11a31.22,31.22,0,0,0,27.58-21.22l14.08,4.65a46,46,0,0,1-40.56,31.36C1068.07,219.48,1066.9,219.52,1065.73,219.52Z"/><rect class="cls-4" x="591.31" y="128.11" width="14.83" height="92.12"/><rect class="cls-4" x="746.18" y="128.11" width="14.83" height="92.12"/><path class="cls-4" d="M675.86,685.13C652,685.13,631.74,667,630,643.2a44.66,44.66,0,0,1,11.15-33,46.31,46.31,0,0,1,31.52-15.61c21.85-1.61,42,12.21,47.82,32.9l-14.26,4c-4-13.94-17.61-23.26-32.46-22.16A31.47,31.47,0,0,0,652.27,620a29.89,29.89,0,0,0-7.5,22.14c1.24,16.78,16.26,29.38,33.5,28.11A31.21,31.21,0,0,0,705.85,649l14.08,4.64A46,46,0,0,1,679.37,685C678.19,685.09,677,685.13,675.86,685.13Z"/><path class="cls-4" d="M734.35,937.11c-23.88,0-44.11-18.15-45.88-41.93a44.6,44.6,0,0,1,11.16-33,46.24,46.24,0,0,1,31.51-15.61c21.85-1.61,42,12.21,47.83,32.9l-14.27,4c-4-14-17.6-23.26-32.46-22.16a31.55,31.55,0,0,0-21.48,10.61,29.93,29.93,0,0,0-7.5,22.14c1.25,16.78,16.27,29.39,33.51,28.12A31.23,31.23,0,0,0,764.34,901l14.09,4.64A46,46,0,0,1,737.87,937C736.69,937.07,735.51,937.11,734.35,937.11Z"/><path class="cls-4" d="M932.58,836.18c-36.09,0-66.66-27.43-69.33-63.36a67.49,67.49,0,0,1,16.86-49.93,70,70,0,0,1,47.62-23.58c33-2.44,63.4,18.45,72.27,49.71l-21.56,6.12c-6-21.07-26.6-35.15-49.05-33.48a47.64,47.64,0,0,0-32.46,16,45.19,45.19,0,0,0-11.33,33.45c1.88,25.36,24.58,44.41,50.63,42.48a47.17,47.17,0,0,0,41.67-32.06l21.29,7A69.52,69.52,0,0,1,937.89,836C936.11,836.11,934.34,836.18,932.58,836.18Z"/><rect class="cls-4" x="576.48" y="744.84" width="14.83" height="92.12"/><rect class="cls-4" x="1363.1" y="395.23" width="14.83" height="92.12"/><rect class="cls-4" x="1292.37" y="731.89" width="24.96" height="155.02"/><rect class="cls-4" x="576.48" y="395.23" width="14.83" height="92.12"/><rect class="cls-4" x="746.18" y="698.79" width="14.83" height="92.12"/><rect class="cls-4" x="992.59" y="953.59" width="14.83" height="92.12"/><path class="cls-4" d="M799.44,511.92c-23.88,0-44.11-18.15-45.88-41.93a44.68,44.68,0,0,1,11.16-33,46.35,46.35,0,0,1,31.52-15.61c21.85-1.61,42,12.22,47.82,32.9l-14.27,4.05c-3.95-13.94-17.6-23.26-32.45-22.16a31.52,31.52,0,0,0-21.49,10.62,29.93,29.93,0,0,0-7.5,22.14c1.25,16.78,16.27,29.38,33.51,28.11a31.22,31.22,0,0,0,27.58-21.22l14.08,4.64A46,46,0,0,1,803,511.79C801.78,511.88,800.61,511.92,799.44,511.92Z"/><path class="cls-4" d="M954.55,374.07c-23.88,0-44.11-18.15-45.88-41.93a44.64,44.64,0,0,1,11.16-33,46.32,46.32,0,0,1,31.51-15.61c21.85-1.61,42,12.22,47.83,32.9l-14.27,4.05c-3.95-13.94-17.6-23.26-32.46-22.16A31.52,31.52,0,0,0,931,308.9a29.93,29.93,0,0,0-7.5,22.14c1.25,16.78,16.27,29.38,33.51,28.11a31.22,31.22,0,0,0,27.58-21.22l14.08,4.64a46,46,0,0,1-40.56,31.37C956.89,374,955.72,374.07,954.55,374.07Z"/><path class="cls-4" d="M1410.65,933.07c-15.85,0-29.28-12.05-30.45-27.83a29.64,29.64,0,0,1,7.4-21.93,30.86,30.86,0,0,1,52.66,11.48l-9.47,2.69a20.71,20.71,0,0,0-21.54-14.71,20.94,20.94,0,0,0-14.26,7.05,19.84,19.84,0,0,0-5,14.69c.83,11.14,10.8,19.5,22.24,18.66a20.72,20.72,0,0,0,18.3-14.09l9.35,3.09A30.54,30.54,0,0,1,1413,933C1412.2,933,1411.42,933.07,1410.65,933.07Z"/><path class="cls-4" d="M1227.22,395.23c-23.89,0-44.11-18.15-45.88-41.93a44.6,44.6,0,0,1,11.16-33A46.22,46.22,0,0,1,1224,304.66c21.85-1.61,42,12.21,47.82,32.9l-14.26,4.05c-4-13.95-17.6-23.26-32.46-22.16a31.5,31.5,0,0,0-21.48,10.61,29.89,29.89,0,0,0-7.5,22.14c1.24,16.78,16.26,29.39,33.51,28.12a31.24,31.24,0,0,0,27.57-21.22l14.09,4.64a46,46,0,0,1-40.57,31.36C1229.56,395.19,1228.38,395.23,1227.22,395.23Z"/><path class="cls-4" d="M1100.75,554.43c-28.66,0-52.94-21.79-55.06-50.32a53.58,53.58,0,0,1,13.39-39.65,55.51,55.51,0,0,1,37.82-18.73c26.23-1.94,50.36,14.65,57.4,39.48l-17.12,4.86c-4.75-16.74-21.13-27.92-39-26.6a37.91,37.91,0,0,0-25.78,12.74,35.94,35.94,0,0,0-9,26.58c1.5,20.13,19.52,35.26,40.21,33.73a37.47,37.47,0,0,0,33.1-25.46l16.9,5.57A55.2,55.2,0,0,1,1105,554.27C1103.56,554.38,1102.15,554.43,1100.75,554.43Z"/><path class="cls-4" d="M1167.73,959.53c-29.79,0-55-22.64-57.22-52.29A55.67,55.67,0,0,1,1124.42,866a57.77,57.77,0,0,1,39.3-19.46c27.25-2,52.33,15.23,59.65,41l-17.8,5c-4.93-17.39-22-29-40.47-27.64a39.38,39.38,0,0,0-26.8,13.24,37.34,37.34,0,0,0-9.35,27.61c1.56,20.93,20.29,36.65,41.79,35.06a38.93,38.93,0,0,0,34.39-26.46l17.56,5.79a57.37,57.37,0,0,1-50.58,39.12C1170.64,959.47,1169.18,959.53,1167.73,959.53Z"/><path class="cls-4" d="M1379,678.36c-36.2,0-66.86-27.51-69.54-63.55a67.66,67.66,0,0,1,16.91-50.07,70.13,70.13,0,0,1,47.77-23.66c33.11-2.44,63.59,18.51,72.48,49.87L1425,597.08c-6-21.13-26.68-35.25-49.2-33.58a47.78,47.78,0,0,0-32.56,16.09,45.32,45.32,0,0,0-11.36,33.55c1.89,25.43,24.65,44.54,50.78,42.61a47.33,47.33,0,0,0,41.8-32.16l21.34,7c-8.81,26.76-32.94,45.42-61.47,47.54C1382.52,678.29,1380.74,678.36,1379,678.36Z"/><rect class="cls-4" x="689.88" y="283.37" width="20.01" height="124.31"/><rect class="cls-4" x="944.03" y="487.35" width="17.24" height="107.07"/><rect class="cls-4" x="1226.52" y="103.65" width="14.83" height="92.12"/><rect class="cls-4" x="1395.36" y="201.59" width="14.83" height="92.12"/><rect class="cls-4" x="1110.35" y="639.07" width="14.83" height="92.12"/><rect class="cls-3" x="1500" y="-500.35" width="1000" height="1000"/><path class="cls-4" d="M1675.86,185.13c-23.89,0-44.12-18.15-45.88-41.93a44.66,44.66,0,0,1,11.15-33,46.31,46.31,0,0,1,31.52-15.61c21.85-1.61,42,12.21,47.82,32.9l-14.26,4c-4-13.94-17.61-23.26-32.46-22.16A31.47,31.47,0,0,0,1652.27,120a29.89,29.89,0,0,0-7.5,22.14c1.24,16.78,16.26,29.38,33.5,28.11A31.21,31.21,0,0,0,1705.85,149l14.08,4.64A46,46,0,0,1,1679.37,185C1678.19,185.09,1677,185.13,1675.86,185.13Z"/><path class="cls-4" d="M1734.35,437.11c-23.88,0-44.11-18.15-45.88-41.93a44.6,44.6,0,0,1,11.16-33,46.24,46.24,0,0,1,31.51-15.61c21.85-1.61,42,12.21,47.83,32.9l-14.27,4.05c-4-13.95-17.6-23.26-32.46-22.16a31.55,31.55,0,0,0-21.48,10.61,29.93,29.93,0,0,0-7.5,22.14c1.25,16.78,16.27,29.39,33.51,28.12A31.23,31.23,0,0,0,1764.34,401l14.09,4.64A46,46,0,0,1,1737.87,437C1736.69,437.07,1735.51,437.11,1734.35,437.11Z"/><path class="cls-4" d="M1932.58,336.18c-36.09,0-66.66-27.43-69.33-63.36a67.49,67.49,0,0,1,16.86-49.93,70,70,0,0,1,47.62-23.58c33-2.44,63.4,18.45,72.27,49.71l-21.56,6.12c-6-21.07-26.6-35.15-49-33.48a47.64,47.64,0,0,0-32.46,16,45.19,45.19,0,0,0-11.33,33.45c1.88,25.36,24.58,44.41,50.63,42.48a47.17,47.17,0,0,0,41.67-32.06l21.29,7a69.52,69.52,0,0,1-61.3,47.39C1936.11,336.11,1934.34,336.18,1932.58,336.18Z"/><rect class="cls-4" x="1576.48" y="244.84" width="14.83" height="92.12"/><rect class="cls-4" x="1746.18" y="198.79" width="14.83" height="92.12"/><rect class="cls-4" x="1992.59" y="453.59" width="14.83" height="92.12"/><path class="cls-4" d="M1799.44,11.92c-23.88,0-44.11-18.15-45.88-41.93a44.68,44.68,0,0,1,11.16-33,46.35,46.35,0,0,1,31.52-15.61c21.85-1.61,42,12.22,47.82,32.9l-14.27,4c-4-13.94-17.6-23.26-32.45-22.16a31.52,31.52,0,0,0-21.49,10.62,29.93,29.93,0,0,0-7.5,22.14c1.25,16.78,16.27,29.38,33.51,28.11a31.22,31.22,0,0,0,27.58-21.22l14.08,4.64A46,46,0,0,1,1803,11.79C1801.78,11.88,1800.61,11.92,1799.44,11.92Z"/><rect class="cls-4" x="1944.03" y="-12.65" width="17.24" height="107.07"/><rect class="cls-4" x="992.59" y="-46.41" width="14.83" height="92.12"/></pattern><pattern id="binary2-7" data-name="binary2" width="2000" height="1000" patternTransform="translate(-652.31 93.41)" patternUnits="userSpaceOnUse" viewBox="0 0 2000 1000"><rect class="cls-2" width="2000" height="1000"/><rect class="cls-3" x="-500" y="499.65" width="1000" height="1000"/><path class="cls-4" d="M325.9,545C302,545,281.78,526.85,280,503.07a44.66,44.66,0,0,1,11.16-33,46.31,46.31,0,0,1,31.52-15.61c21.85-1.61,41.95,12.21,47.82,32.9l-14.27,4.05c-3.95-13.94-17.6-23.26-32.45-22.16a31.52,31.52,0,0,0-21.49,10.62A29.93,29.93,0,0,0,294.8,502c1.25,16.78,16.27,29.38,33.51,28.11a31.21,31.21,0,0,0,27.58-21.22L370,513.5a46,46,0,0,1-40.56,31.37C328.23,545,327.06,545,325.9,545Z"/><path class="cls-4" d="M65.73,719.52c-23.88,0-44.11-18.15-45.88-41.93a44.68,44.68,0,0,1,11.16-33,46.35,46.35,0,0,1,31.52-15.61c21.85-1.61,42,12.22,47.82,32.91l-14.27,4c-4-13.94-17.6-23.26-32.45-22.16a31.6,31.6,0,0,0-21.49,10.62,29.93,29.93,0,0,0-7.5,22.14c1.25,16.78,16.27,29.39,33.51,28.11a31.22,31.22,0,0,0,27.58-21.22L109.81,688a46,46,0,0,1-40.56,31.36C68.07,719.48,66.9,719.52,65.73,719.52Z"/><rect class="cls-4" x="363.1" y="895.23" width="14.83" height="92.12"/><path class="cls-4" d="M227.22,895.23c-23.89,0-44.11-18.15-45.88-41.93a44.6,44.6,0,0,1,11.16-33A46.22,46.22,0,0,1,224,804.66c21.85-1.61,42,12.21,47.82,32.9l-14.26,4.05c-4-14-17.6-23.26-32.46-22.16a31.5,31.5,0,0,0-21.48,10.61,29.89,29.89,0,0,0-7.5,22.14c1.24,16.78,16.26,29.39,33.51,28.12a31.24,31.24,0,0,0,27.57-21.22l14.09,4.64a46,46,0,0,1-40.57,31.36C229.56,895.19,228.38,895.23,227.22,895.23Z"/><path class="cls-4" d="M100.75,1054.43c-28.66,0-52.94-21.79-55.06-50.32a53.58,53.58,0,0,1,13.39-39.65A55.51,55.51,0,0,1,96.9,945.73c26.23-1.94,50.36,14.65,57.4,39.48l-17.12,4.86c-4.75-16.74-21.13-27.92-39-26.6a37.91,37.91,0,0,0-25.78,12.74,35.94,35.94,0,0,0-9,26.58c1.5,20.13,19.52,35.26,40.21,33.73a37.47,37.47,0,0,0,33.1-25.46l16.9,5.57A55.2,55.2,0,0,1,105,1054.27C103.56,1054.38,102.15,1054.43,100.75,1054.43Z"/><rect class="cls-4" x="226.52" y="603.65" width="14.83" height="92.12"/><rect class="cls-4" x="395.36" y="701.59" width="14.83" height="92.12"/><rect class="cls-3" x="500" y="999.65" width="1000" height="1000"/><path class="cls-4" d="M1325.9,1045c-23.89,0-44.12-18.15-45.89-41.93a44.66,44.66,0,0,1,11.16-33,46.31,46.31,0,0,1,31.52-15.61c21.85-1.61,42,12.21,47.82,32.9l-14.27,4c-4-13.94-17.6-23.26-32.45-22.16a31.52,31.52,0,0,0-21.49,10.62,29.93,29.93,0,0,0-7.5,22.14c1.25,16.78,16.27,29.38,33.51,28.11a31.21,31.21,0,0,0,27.58-21.22l14.08,4.64a46,46,0,0,1-40.56,31.37C1328.23,1045,1327.06,1045,1325.9,1045Z"/><rect class="cls-3" x="1500" y="499.65" width="1000" height="1000"/><path class="cls-4" d="M1675.86,614.45c-23.89,0-44.12-18.15-45.88-41.93a44.67,44.67,0,0,1,11.15-33,46.29,46.29,0,0,1,31.52-15.6c21.85-1.62,42,12.21,47.82,32.9l-14.26,4c-4-13.94-17.61-23.26-32.46-22.15a31.5,31.5,0,0,0-21.48,10.61,29.89,29.89,0,0,0-7.5,22.14c1.24,16.78,16.26,29.39,33.5,28.11a31.22,31.22,0,0,0,27.58-21.21l14.08,4.64a46,46,0,0,1-40.56,31.36C1678.19,614.41,1677,614.45,1675.86,614.45Z"/><path class="cls-4" d="M1893.73,684.65c-30.43,0-56.2-23.13-58.45-53.42a56.89,56.89,0,0,1,14.21-42.09,59.05,59.05,0,0,1,40.15-19.88c27.83-2,53.45,15.56,60.92,41.92l-18.17,5.15c-5-17.76-22.43-29.63-41.35-28.23a40.22,40.22,0,0,0-27.37,13.53,38.13,38.13,0,0,0-9.55,28.2c1.59,21.38,20.72,37.44,42.69,35.81a39.75,39.75,0,0,0,35.12-27l18,5.91a58.61,58.61,0,0,1-51.67,40C1896.7,684.59,1895.21,684.65,1893.73,684.65Z"/><rect class="cls-4" x="1591.31" y="628.11" width="14.83" height="92.12"/><rect class="cls-4" x="1746.18" y="628.11" width="14.83" height="92.12"/><rect class="cls-4" x="1576.48" y="895.23" width="14.83" height="92.12"/><path class="cls-4" d="M1799.44,1011.92c-23.88,0-44.11-18.15-45.88-41.93a44.68,44.68,0,0,1,11.16-33,46.35,46.35,0,0,1,31.52-15.61c21.85-1.61,42,12.22,47.82,32.9l-14.27,4c-4-13.94-17.6-23.26-32.45-22.16a31.52,31.52,0,0,0-21.49,10.62,29.93,29.93,0,0,0-7.5,22.14c1.25,16.78,16.27,29.38,33.51,28.11a31.22,31.22,0,0,0,27.58-21.22l14.08,4.64a46,46,0,0,1-40.56,31.37C1801.78,1011.88,1800.61,1011.92,1799.44,1011.92Z"/><path class="cls-4" d="M1954.55,874.07c-23.88,0-44.11-18.15-45.88-41.93a44.64,44.64,0,0,1,11.16-33,46.32,46.32,0,0,1,31.51-15.61c21.85-1.61,42,12.22,47.83,32.9l-14.27,4.05c-4-13.94-17.6-23.26-32.46-22.16A31.52,31.52,0,0,0,1931,808.9a29.93,29.93,0,0,0-7.5,22.14c1.25,16.78,16.27,29.38,33.51,28.11a31.22,31.22,0,0,0,27.58-21.22l14.08,4.64a46,46,0,0,1-40.56,31.37C1956.89,874,1955.72,874.07,1954.55,874.07Z"/><rect class="cls-4" x="1689.88" y="783.37" width="20.01" height="124.31"/><rect class="cls-4" x="1944.03" y="987.35" width="17.24" height="107.07"/><rect class="cls-3" x="-500" y="-500.35" width="1000" height="1000"/><rect class="cls-4" x="292.37" y="231.89" width="24.96" height="155.02"/><rect class="cls-4" x="-7.41" y="453.59" width="14.83" height="92.12"/><path class="cls-4" d="M410.65,433.07c-15.85,0-29.28-12.05-30.45-27.83a29.64,29.64,0,0,1,7.4-21.93,30.86,30.86,0,0,1,52.66,11.48l-9.47,2.69a20.71,20.71,0,0,0-21.54-14.71A20.94,20.94,0,0,0,395,389.82a19.84,19.84,0,0,0-5,14.69c.83,11.14,10.8,19.5,22.24,18.66a20.72,20.72,0,0,0,18.3-14.09l9.35,3.09A30.54,30.54,0,0,1,413,433C412.2,433,411.42,433.07,410.65,433.07Z"/><path class="cls-4" d="M100.75,54.43c-28.66,0-52.94-21.79-55.06-50.32A53.58,53.58,0,0,1,59.08-35.54,55.51,55.51,0,0,1,96.9-54.27c26.23-1.94,50.36,14.65,57.4,39.48L137.18-9.93c-4.75-16.74-21.13-27.92-39-26.6A37.91,37.91,0,0,0,72.44-23.79a35.94,35.94,0,0,0-9,26.58C64.94,22.92,83,38.05,103.65,36.52a37.47,37.47,0,0,0,33.1-25.46l16.9,5.57A55.2,55.2,0,0,1,105,54.27C103.56,54.38,102.15,54.43,100.75,54.43Z"/><path class="cls-4" d="M167.73,459.53c-29.79,0-55-22.64-57.22-52.29A55.67,55.67,0,0,1,124.42,366a57.77,57.77,0,0,1,39.3-19.46c27.25-2,52.33,15.23,59.65,41l-17.8,5c-4.93-17.39-21.95-29-40.47-27.64a39.38,39.38,0,0,0-26.8,13.24A37.34,37.34,0,0,0,129,405.86c1.56,20.93,20.29,36.65,41.79,35.06a38.93,38.93,0,0,0,34.39-26.46l17.56,5.79a57.37,57.37,0,0,1-50.58,39.12C170.64,459.47,169.18,459.53,167.73,459.53Z"/><path class="cls-4" d="M379,178.36c-36.2,0-66.86-27.51-69.54-63.55a67.66,67.66,0,0,1,16.91-50.07,70.13,70.13,0,0,1,47.77-23.66C407.23,38.64,437.71,59.59,446.6,91L425,97.08C419,76,398.3,61.83,375.78,63.5a47.78,47.78,0,0,0-32.56,16.09,45.32,45.32,0,0,0-11.36,33.55c1.89,25.43,24.65,44.54,50.78,42.61a47.33,47.33,0,0,0,41.8-32.16l21.34,7C437,157.38,412.84,176,384.31,178.16,382.52,178.29,380.74,178.36,379,178.36Z"/><rect class="cls-4" x="110.35" y="139.07" width="14.83" height="92.12"/><rect class="cls-3" x="500" y="-0.35" width="1000" height="1000"/><path class="cls-4" d="M675.86,114.45C652,114.45,631.74,96.3,630,72.52a44.67,44.67,0,0,1,11.15-33,46.29,46.29,0,0,1,31.52-15.6c21.85-1.62,42,12.21,47.82,32.9l-14.26,4c-4-13.94-17.61-23.26-32.46-22.15a31.5,31.5,0,0,0-21.48,10.61,29.89,29.89,0,0,0-7.5,22.14C646,88.2,661,100.81,678.27,99.53a31.22,31.22,0,0,0,27.58-21.21L719.93,83a46,46,0,0,1-40.56,31.36C678.19,114.41,677,114.45,675.86,114.45Z"/><path class="cls-4" d="M893.73,184.65c-30.43,0-56.2-23.13-58.45-53.42a56.89,56.89,0,0,1,14.21-42.09,59.05,59.05,0,0,1,40.15-19.88c27.83-2.05,53.45,15.56,60.92,41.92l-18.17,5.15C927.35,98.57,910,86.7,891,88.1a40.22,40.22,0,0,0-27.37,13.53,38.13,38.13,0,0,0-9.55,28.2c1.59,21.38,20.72,37.44,42.69,35.81a39.75,39.75,0,0,0,35.12-27l18,5.91a58.61,58.61,0,0,1-51.67,40C896.7,184.59,895.21,184.65,893.73,184.65Z"/><path class="cls-4" d="M1325.9,45C1302,45,1281.78,26.85,1280,3.07a44.66,44.66,0,0,1,11.16-33,46.31,46.31,0,0,1,31.52-15.61c21.85-1.61,42,12.21,47.82,32.9l-14.27,4c-4-13.94-17.6-23.26-32.45-22.16a31.52,31.52,0,0,0-21.49,10.62A29.93,29.93,0,0,0,1294.8,2c1.25,16.78,16.27,29.38,33.51,28.11a31.21,31.21,0,0,0,27.58-21.22L1370,13.5a46,46,0,0,1-40.56,31.37C1328.23,45,1327.06,45,1325.9,45Z"/><path class="cls-4" d="M1065.73,219.52c-23.88,0-44.11-18.15-45.88-41.93a44.68,44.68,0,0,1,11.16-33,46.35,46.35,0,0,1,31.52-15.61c21.85-1.61,42,12.22,47.82,32.91l-14.27,4c-3.95-13.94-17.6-23.26-32.45-22.16a31.6,31.6,0,0,0-21.49,10.62,29.93,29.93,0,0,0-7.5,22.14c1.25,16.78,16.27,29.39,33.51,28.11a31.22,31.22,0,0,0,27.58-21.22l14.08,4.65a46,46,0,0,1-40.56,31.36C1068.07,219.48,1066.9,219.52,1065.73,219.52Z"/><rect class="cls-4" x="591.31" y="128.11" width="14.83" height="92.12"/><rect class="cls-4" x="746.18" y="128.11" width="14.83" height="92.12"/><path class="cls-4" d="M675.86,685.13C652,685.13,631.74,667,630,643.2a44.66,44.66,0,0,1,11.15-33,46.31,46.31,0,0,1,31.52-15.61c21.85-1.61,42,12.21,47.82,32.9l-14.26,4c-4-13.94-17.61-23.26-32.46-22.16A31.47,31.47,0,0,0,652.27,620a29.89,29.89,0,0,0-7.5,22.14c1.24,16.78,16.26,29.38,33.5,28.11A31.21,31.21,0,0,0,705.85,649l14.08,4.64A46,46,0,0,1,679.37,685C678.19,685.09,677,685.13,675.86,685.13Z"/><path class="cls-4" d="M734.35,937.11c-23.88,0-44.11-18.15-45.88-41.93a44.6,44.6,0,0,1,11.16-33,46.24,46.24,0,0,1,31.51-15.61c21.85-1.61,42,12.21,47.83,32.9l-14.27,4c-4-14-17.6-23.26-32.46-22.16a31.55,31.55,0,0,0-21.48,10.61,29.93,29.93,0,0,0-7.5,22.14c1.25,16.78,16.27,29.39,33.51,28.12A31.23,31.23,0,0,0,764.34,901l14.09,4.64A46,46,0,0,1,737.87,937C736.69,937.07,735.51,937.11,734.35,937.11Z"/><path class="cls-4" d="M932.58,836.18c-36.09,0-66.66-27.43-69.33-63.36a67.49,67.49,0,0,1,16.86-49.93,70,70,0,0,1,47.62-23.58c33-2.44,63.4,18.45,72.27,49.71l-21.56,6.12c-6-21.07-26.6-35.15-49.05-33.48a47.64,47.64,0,0,0-32.46,16,45.19,45.19,0,0,0-11.33,33.45c1.88,25.36,24.58,44.41,50.63,42.48a47.17,47.17,0,0,0,41.67-32.06l21.29,7A69.52,69.52,0,0,1,937.89,836C936.11,836.11,934.34,836.18,932.58,836.18Z"/><rect class="cls-4" x="576.48" y="744.84" width="14.83" height="92.12"/><rect class="cls-4" x="1363.1" y="395.23" width="14.83" height="92.12"/><rect class="cls-4" x="1292.37" y="731.89" width="24.96" height="155.02"/><rect class="cls-4" x="576.48" y="395.23" width="14.83" height="92.12"/><rect class="cls-4" x="746.18" y="698.79" width="14.83" height="92.12"/><rect class="cls-4" x="992.59" y="953.59" width="14.83" height="92.12"/><path class="cls-4" d="M799.44,511.92c-23.88,0-44.11-18.15-45.88-41.93a44.68,44.68,0,0,1,11.16-33,46.35,46.35,0,0,1,31.52-15.61c21.85-1.61,42,12.22,47.82,32.9l-14.27,4.05c-3.95-13.94-17.6-23.26-32.45-22.16a31.52,31.52,0,0,0-21.49,10.62,29.93,29.93,0,0,0-7.5,22.14c1.25,16.78,16.27,29.38,33.51,28.11a31.22,31.22,0,0,0,27.58-21.22l14.08,4.64A46,46,0,0,1,803,511.79C801.78,511.88,800.61,511.92,799.44,511.92Z"/><path class="cls-4" d="M954.55,374.07c-23.88,0-44.11-18.15-45.88-41.93a44.64,44.64,0,0,1,11.16-33,46.32,46.32,0,0,1,31.51-15.61c21.85-1.61,42,12.22,47.83,32.9l-14.27,4.05c-3.95-13.94-17.6-23.26-32.46-22.16A31.52,31.52,0,0,0,931,308.9a29.93,29.93,0,0,0-7.5,22.14c1.25,16.78,16.27,29.38,33.51,28.11a31.22,31.22,0,0,0,27.58-21.22l14.08,4.64a46,46,0,0,1-40.56,31.37C956.89,374,955.72,374.07,954.55,374.07Z"/><path class="cls-4" d="M1410.65,933.07c-15.85,0-29.28-12.05-30.45-27.83a29.64,29.64,0,0,1,7.4-21.93,30.86,30.86,0,0,1,52.66,11.48l-9.47,2.69a20.71,20.71,0,0,0-21.54-14.71,20.94,20.94,0,0,0-14.26,7.05,19.84,19.84,0,0,0-5,14.69c.83,11.14,10.8,19.5,22.24,18.66a20.72,20.72,0,0,0,18.3-14.09l9.35,3.09A30.54,30.54,0,0,1,1413,933C1412.2,933,1411.42,933.07,1410.65,933.07Z"/><path class="cls-4" d="M1227.22,395.23c-23.89,0-44.11-18.15-45.88-41.93a44.6,44.6,0,0,1,11.16-33A46.22,46.22,0,0,1,1224,304.66c21.85-1.61,42,12.21,47.82,32.9l-14.26,4.05c-4-13.95-17.6-23.26-32.46-22.16a31.5,31.5,0,0,0-21.48,10.61,29.89,29.89,0,0,0-7.5,22.14c1.24,16.78,16.26,29.39,33.51,28.12a31.24,31.24,0,0,0,27.57-21.22l14.09,4.64a46,46,0,0,1-40.57,31.36C1229.56,395.19,1228.38,395.23,1227.22,395.23Z"/><path class="cls-4" d="M1100.75,554.43c-28.66,0-52.94-21.79-55.06-50.32a53.58,53.58,0,0,1,13.39-39.65,55.51,55.51,0,0,1,37.82-18.73c26.23-1.94,50.36,14.65,57.4,39.48l-17.12,4.86c-4.75-16.74-21.13-27.92-39-26.6a37.91,37.91,0,0,0-25.78,12.74,35.94,35.94,0,0,0-9,26.58c1.5,20.13,19.52,35.26,40.21,33.73a37.47,37.47,0,0,0,33.1-25.46l16.9,5.57A55.2,55.2,0,0,1,1105,554.27C1103.56,554.38,1102.15,554.43,1100.75,554.43Z"/><path class="cls-4" d="M1167.73,959.53c-29.79,0-55-22.64-57.22-52.29A55.67,55.67,0,0,1,1124.42,866a57.77,57.77,0,0,1,39.3-19.46c27.25-2,52.33,15.23,59.65,41l-17.8,5c-4.93-17.39-22-29-40.47-27.64a39.38,39.38,0,0,0-26.8,13.24,37.34,37.34,0,0,0-9.35,27.61c1.56,20.93,20.29,36.65,41.79,35.06a38.93,38.93,0,0,0,34.39-26.46l17.56,5.79a57.37,57.37,0,0,1-50.58,39.12C1170.64,959.47,1169.18,959.53,1167.73,959.53Z"/><path class="cls-4" d="M1379,678.36c-36.2,0-66.86-27.51-69.54-63.55a67.66,67.66,0,0,1,16.91-50.07,70.13,70.13,0,0,1,47.77-23.66c33.11-2.44,63.59,18.51,72.48,49.87L1425,597.08c-6-21.13-26.68-35.25-49.2-33.58a47.78,47.78,0,0,0-32.56,16.09,45.32,45.32,0,0,0-11.36,33.55c1.89,25.43,24.65,44.54,50.78,42.61a47.33,47.33,0,0,0,41.8-32.16l21.34,7c-8.81,26.76-32.94,45.42-61.47,47.54C1382.52,678.29,1380.74,678.36,1379,678.36Z"/><rect class="cls-4" x="689.88" y="283.37" width="20.01" height="124.31"/><rect class="cls-4" x="944.03" y="487.35" width="17.24" height="107.07"/><rect class="cls-4" x="1226.52" y="103.65" width="14.83" height="92.12"/><rect class="cls-4" x="1395.36" y="201.59" width="14.83" height="92.12"/><rect class="cls-4" x="1110.35" y="639.07" width="14.83" height="92.12"/><rect class="cls-3" x="1500" y="-500.35" width="1000" height="1000"/><path class="cls-4" d="M1675.86,185.13c-23.89,0-44.12-18.15-45.88-41.93a44.66,44.66,0,0,1,11.15-33,46.31,46.31,0,0,1,31.52-15.61c21.85-1.61,42,12.21,47.82,32.9l-14.26,4c-4-13.94-17.61-23.26-32.46-22.16A31.47,31.47,0,0,0,1652.27,120a29.89,29.89,0,0,0-7.5,22.14c1.24,16.78,16.26,29.38,33.5,28.11A31.21,31.21,0,0,0,1705.85,149l14.08,4.64A46,46,0,0,1,1679.37,185C1678.19,185.09,1677,185.13,1675.86,185.13Z"/><path class="cls-4" d="M1734.35,437.11c-23.88,0-44.11-18.15-45.88-41.93a44.6,44.6,0,0,1,11.16-33,46.24,46.24,0,0,1,31.51-15.61c21.85-1.61,42,12.21,47.83,32.9l-14.27,4.05c-4-13.95-17.6-23.26-32.46-22.16a31.55,31.55,0,0,0-21.48,10.61,29.93,29.93,0,0,0-7.5,22.14c1.25,16.78,16.27,29.39,33.51,28.12A31.23,31.23,0,0,0,1764.34,401l14.09,4.64A46,46,0,0,1,1737.87,437C1736.69,437.07,1735.51,437.11,1734.35,437.11Z"/><path class="cls-4" d="M1932.58,336.18c-36.09,0-66.66-27.43-69.33-63.36a67.49,67.49,0,0,1,16.86-49.93,70,70,0,0,1,47.62-23.58c33-2.44,63.4,18.45,72.27,49.71l-21.56,6.12c-6-21.07-26.6-35.15-49-33.48a47.64,47.64,0,0,0-32.46,16,45.19,45.19,0,0,0-11.33,33.45c1.88,25.36,24.58,44.41,50.63,42.48a47.17,47.17,0,0,0,41.67-32.06l21.29,7a69.52,69.52,0,0,1-61.3,47.39C1936.11,336.11,1934.34,336.18,1932.58,336.18Z"/><rect class="cls-4" x="1576.48" y="244.84" width="14.83" height="92.12"/><rect class="cls-4" x="1746.18" y="198.79" width="14.83" height="92.12"/><rect class="cls-4" x="1992.59" y="453.59" width="14.83" height="92.12"/><path class="cls-4" d="M1799.44,11.92c-23.88,0-44.11-18.15-45.88-41.93a44.68,44.68,0,0,1,11.16-33,46.35,46.35,0,0,1,31.52-15.61c21.85-1.61,42,12.22,47.82,32.9l-14.27,4c-4-13.94-17.6-23.26-32.45-22.16a31.52,31.52,0,0,0-21.49,10.62,29.93,29.93,0,0,0-7.5,22.14c1.25,16.78,16.27,29.38,33.51,28.11a31.22,31.22,0,0,0,27.58-21.22l14.08,4.64A46,46,0,0,1,1803,11.79C1801.78,11.88,1800.61,11.92,1799.44,11.92Z"/><rect class="cls-4" x="1944.03" y="-12.65" width="17.24" height="107.07"/><rect class="cls-4" x="992.59" y="-46.41" width="14.83" height="92.12"/></pattern><clipPath id="clip-path" transform="translate(641.18 1461.29)"><path class="cls-1" d="M1000,1000H0V0H1000Z"/></clipPath><pattern id="binary2-9" data-name="binary2" width="2000" height="1000" patternTransform="translate(-11.13 1554.71)" patternUnits="userSpaceOnUse" viewBox="0 0 2000 1000"><rect class="cls-2" width="2000" height="1000"/><rect class="cls-3" x="-500" y="499.65" width="1000" height="1000"/><path class="cls-4" d="M325.9,545C302,545,281.78,526.85,280,503.07a44.66,44.66,0,0,1,11.16-33,46.31,46.31,0,0,1,31.52-15.61c21.85-1.61,41.95,12.21,47.82,32.9l-14.27,4.05c-3.95-13.94-17.6-23.26-32.45-22.16a31.52,31.52,0,0,0-21.49,10.62A29.93,29.93,0,0,0,294.8,502c1.25,16.78,16.27,29.38,33.51,28.11a31.21,31.21,0,0,0,27.58-21.22L370,513.5a46,46,0,0,1-40.56,31.37C328.23,545,327.06,545,325.9,545Z"/><path class="cls-4" d="M65.73,719.52c-23.88,0-44.11-18.15-45.88-41.93a44.68,44.68,0,0,1,11.16-33,46.35,46.35,0,0,1,31.52-15.61c21.85-1.61,42,12.22,47.82,32.91l-14.27,4c-4-13.94-17.6-23.26-32.45-22.16a31.6,31.6,0,0,0-21.49,10.62,29.93,29.93,0,0,0-7.5,22.14c1.25,16.78,16.27,29.39,33.51,28.11a31.22,31.22,0,0,0,27.58-21.22L109.81,688a46,46,0,0,1-40.56,31.36C68.07,719.48,66.9,719.52,65.73,719.52Z"/><rect class="cls-4" x="363.1" y="895.23" width="14.83" height="92.12"/><path class="cls-4" d="M227.22,895.23c-23.89,0-44.11-18.15-45.88-41.93a44.6,44.6,0,0,1,11.16-33A46.22,46.22,0,0,1,224,804.66c21.85-1.61,42,12.21,47.82,32.9l-14.26,4.05c-4-14-17.6-23.26-32.46-22.16a31.5,31.5,0,0,0-21.48,10.61,29.89,29.89,0,0,0-7.5,22.14c1.24,16.78,16.26,29.39,33.51,28.12a31.24,31.24,0,0,0,27.57-21.22l14.09,4.64a46,46,0,0,1-40.57,31.36C229.56,895.19,228.38,895.23,227.22,895.23Z"/><path class="cls-4" d="M100.75,1054.43c-28.66,0-52.94-21.79-55.06-50.32a53.58,53.58,0,0,1,13.39-39.65A55.51,55.51,0,0,1,96.9,945.73c26.23-1.94,50.36,14.65,57.4,39.48l-17.12,4.86c-4.75-16.74-21.13-27.92-39-26.6a37.91,37.91,0,0,0-25.78,12.74,35.94,35.94,0,0,0-9,26.58c1.5,20.13,19.52,35.26,40.21,33.73a37.47,37.47,0,0,0,33.1-25.46l16.9,5.57A55.2,55.2,0,0,1,105,1054.27C103.56,1054.38,102.15,1054.43,100.75,1054.43Z"/><rect class="cls-4" x="226.52" y="603.65" width="14.83" height="92.12"/><rect class="cls-4" x="395.36" y="701.59" width="14.83" height="92.12"/><rect class="cls-3" x="500" y="999.65" width="1000" height="1000"/><path class="cls-4" d="M1325.9,1045c-23.89,0-44.12-18.15-45.89-41.93a44.66,44.66,0,0,1,11.16-33,46.31,46.31,0,0,1,31.52-15.61c21.85-1.61,42,12.21,47.82,32.9l-14.27,4c-4-13.94-17.6-23.26-32.45-22.16a31.52,31.52,0,0,0-21.49,10.62,29.93,29.93,0,0,0-7.5,22.14c1.25,16.78,16.27,29.38,33.51,28.11a31.21,31.21,0,0,0,27.58-21.22l14.08,4.64a46,46,0,0,1-40.56,31.37C1328.23,1045,1327.06,1045,1325.9,1045Z"/><rect class="cls-3" x="1500" y="499.65" width="1000" height="1000"/><path class="cls-4" d="M1675.86,614.45c-23.89,0-44.12-18.15-45.88-41.93a44.67,44.67,0,0,1,11.15-33,46.29,46.29,0,0,1,31.52-15.6c21.85-1.62,42,12.21,47.82,32.9l-14.26,4c-4-13.94-17.61-23.26-32.46-22.15a31.5,31.5,0,0,0-21.48,10.61,29.89,29.89,0,0,0-7.5,22.14c1.24,16.78,16.26,29.39,33.5,28.11a31.22,31.22,0,0,0,27.58-21.21l14.08,4.64a46,46,0,0,1-40.56,31.36C1678.19,614.41,1677,614.45,1675.86,614.45Z"/><path class="cls-4" d="M1893.73,684.65c-30.43,0-56.2-23.13-58.45-53.42a56.89,56.89,0,0,1,14.21-42.09,59.05,59.05,0,0,1,40.15-19.88c27.83-2,53.45,15.56,60.92,41.92l-18.17,5.15c-5-17.76-22.43-29.63-41.35-28.23a40.22,40.22,0,0,0-27.37,13.53,38.13,38.13,0,0,0-9.55,28.2c1.59,21.38,20.72,37.44,42.69,35.81a39.75,39.75,0,0,0,35.12-27l18,5.91a58.61,58.61,0,0,1-51.67,40C1896.7,684.59,1895.21,684.65,1893.73,684.65Z"/><rect class="cls-4" x="1591.31" y="628.11" width="14.83" height="92.12"/><rect class="cls-4" x="1746.18" y="628.11" width="14.83" height="92.12"/><rect class="cls-4" x="1576.48" y="895.23" width="14.83" height="92.12"/><path class="cls-4" d="M1799.44,1011.92c-23.88,0-44.11-18.15-45.88-41.93a44.68,44.68,0,0,1,11.16-33,46.35,46.35,0,0,1,31.52-15.61c21.85-1.61,42,12.22,47.82,32.9l-14.27,4c-4-13.94-17.6-23.26-32.45-22.16a31.52,31.52,0,0,0-21.49,10.62,29.93,29.93,0,0,0-7.5,22.14c1.25,16.78,16.27,29.38,33.51,28.11a31.22,31.22,0,0,0,27.58-21.22l14.08,4.64a46,46,0,0,1-40.56,31.37C1801.78,1011.88,1800.61,1011.92,1799.44,1011.92Z"/><path class="cls-4" d="M1954.55,874.07c-23.88,0-44.11-18.15-45.88-41.93a44.64,44.64,0,0,1,11.16-33,46.32,46.32,0,0,1,31.51-15.61c21.85-1.61,42,12.22,47.83,32.9l-14.27,4.05c-4-13.94-17.6-23.26-32.46-22.16A31.52,31.52,0,0,0,1931,808.9a29.93,29.93,0,0,0-7.5,22.14c1.25,16.78,16.27,29.38,33.51,28.11a31.22,31.22,0,0,0,27.58-21.22l14.08,4.64a46,46,0,0,1-40.56,31.37C1956.89,874,1955.72,874.07,1954.55,874.07Z"/><rect class="cls-4" x="1689.88" y="783.37" width="20.01" height="124.31"/><rect class="cls-4" x="1944.03" y="987.35" width="17.24" height="107.07"/><rect class="cls-3" x="-500" y="-500.35" width="1000" height="1000"/><rect class="cls-4" x="292.37" y="231.89" width="24.96" height="155.02"/><rect class="cls-4" x="-7.41" y="453.59" width="14.83" height="92.12"/><path class="cls-4" d="M410.65,433.07c-15.85,0-29.28-12.05-30.45-27.83a29.64,29.64,0,0,1,7.4-21.93,30.86,30.86,0,0,1,52.66,11.48l-9.47,2.69a20.71,20.71,0,0,0-21.54-14.71A20.94,20.94,0,0,0,395,389.82a19.84,19.84,0,0,0-5,14.69c.83,11.14,10.8,19.5,22.24,18.66a20.72,20.72,0,0,0,18.3-14.09l9.35,3.09A30.54,30.54,0,0,1,413,433C412.2,433,411.42,433.07,410.65,433.07Z"/><path class="cls-4" d="M100.75,54.43c-28.66,0-52.94-21.79-55.06-50.32A53.58,53.58,0,0,1,59.08-35.54,55.51,55.51,0,0,1,96.9-54.27c26.23-1.94,50.36,14.65,57.4,39.48L137.18-9.93c-4.75-16.74-21.13-27.92-39-26.6A37.91,37.91,0,0,0,72.44-23.79a35.94,35.94,0,0,0-9,26.58C64.94,22.92,83,38.05,103.65,36.52a37.47,37.47,0,0,0,33.1-25.46l16.9,5.57A55.2,55.2,0,0,1,105,54.27C103.56,54.38,102.15,54.43,100.75,54.43Z"/><path class="cls-4" d="M167.73,459.53c-29.79,0-55-22.64-57.22-52.29A55.67,55.67,0,0,1,124.42,366a57.77,57.77,0,0,1,39.3-19.46c27.25-2,52.33,15.23,59.65,41l-17.8,5c-4.93-17.39-21.95-29-40.47-27.64a39.38,39.38,0,0,0-26.8,13.24A37.34,37.34,0,0,0,129,405.86c1.56,20.93,20.29,36.65,41.79,35.06a38.93,38.93,0,0,0,34.39-26.46l17.56,5.79a57.37,57.37,0,0,1-50.58,39.12C170.64,459.47,169.18,459.53,167.73,459.53Z"/><path class="cls-4" d="M379,178.36c-36.2,0-66.86-27.51-69.54-63.55a67.66,67.66,0,0,1,16.91-50.07,70.13,70.13,0,0,1,47.77-23.66C407.23,38.64,437.71,59.59,446.6,91L425,97.08C419,76,398.3,61.83,375.78,63.5a47.78,47.78,0,0,0-32.56,16.09,45.32,45.32,0,0,0-11.36,33.55c1.89,25.43,24.65,44.54,50.78,42.61a47.33,47.33,0,0,0,41.8-32.16l21.34,7C437,157.38,412.84,176,384.31,178.16,382.52,178.29,380.74,178.36,379,178.36Z"/><rect class="cls-4" x="110.35" y="139.07" width="14.83" height="92.12"/><rect class="cls-3" x="500" y="-0.35" width="1000" height="1000"/><path class="cls-4" d="M675.86,114.45C652,114.45,631.74,96.3,630,72.52a44.67,44.67,0,0,1,11.15-33,46.29,46.29,0,0,1,31.52-15.6c21.85-1.62,42,12.21,47.82,32.9l-14.26,4c-4-13.94-17.61-23.26-32.46-22.15a31.5,31.5,0,0,0-21.48,10.61,29.89,29.89,0,0,0-7.5,22.14C646,88.2,661,100.81,678.27,99.53a31.22,31.22,0,0,0,27.58-21.21L719.93,83a46,46,0,0,1-40.56,31.36C678.19,114.41,677,114.45,675.86,114.45Z"/><path class="cls-4" d="M893.73,184.65c-30.43,0-56.2-23.13-58.45-53.42a56.89,56.89,0,0,1,14.21-42.09,59.05,59.05,0,0,1,40.15-19.88c27.83-2.05,53.45,15.56,60.92,41.92l-18.17,5.15C927.35,98.57,910,86.7,891,88.1a40.22,40.22,0,0,0-27.37,13.53,38.13,38.13,0,0,0-9.55,28.2c1.59,21.38,20.72,37.44,42.69,35.81a39.75,39.75,0,0,0,35.12-27l18,5.91a58.61,58.61,0,0,1-51.67,40C896.7,184.59,895.21,184.65,893.73,184.65Z"/><path class="cls-4" d="M1325.9,45C1302,45,1281.78,26.85,1280,3.07a44.66,44.66,0,0,1,11.16-33,46.31,46.31,0,0,1,31.52-15.61c21.85-1.61,42,12.21,47.82,32.9l-14.27,4c-4-13.94-17.6-23.26-32.45-22.16a31.52,31.52,0,0,0-21.49,10.62A29.93,29.93,0,0,0,1294.8,2c1.25,16.78,16.27,29.38,33.51,28.11a31.21,31.21,0,0,0,27.58-21.22L1370,13.5a46,46,0,0,1-40.56,31.37C1328.23,45,1327.06,45,1325.9,45Z"/><path class="cls-4" d="M1065.73,219.52c-23.88,0-44.11-18.15-45.88-41.93a44.68,44.68,0,0,1,11.16-33,46.35,46.35,0,0,1,31.52-15.61c21.85-1.61,42,12.22,47.82,32.91l-14.27,4c-3.95-13.94-17.6-23.26-32.45-22.16a31.6,31.6,0,0,0-21.49,10.62,29.93,29.93,0,0,0-7.5,22.14c1.25,16.78,16.27,29.39,33.51,28.11a31.22,31.22,0,0,0,27.58-21.22l14.08,4.65a46,46,0,0,1-40.56,31.36C1068.07,219.48,1066.9,219.52,1065.73,219.52Z"/><rect class="cls-4" x="591.31" y="128.11" width="14.83" height="92.12"/><rect class="cls-4" x="746.18" y="128.11" width="14.83" height="92.12"/><path class="cls-4" d="M675.86,685.13C652,685.13,631.74,667,630,643.2a44.66,44.66,0,0,1,11.15-33,46.31,46.31,0,0,1,31.52-15.61c21.85-1.61,42,12.21,47.82,32.9l-14.26,4c-4-13.94-17.61-23.26-32.46-22.16A31.47,31.47,0,0,0,652.27,620a29.89,29.89,0,0,0-7.5,22.14c1.24,16.78,16.26,29.38,33.5,28.11A31.21,31.21,0,0,0,705.85,649l14.08,4.64A46,46,0,0,1,679.37,685C678.19,685.09,677,685.13,675.86,685.13Z"/><path class="cls-4" d="M734.35,937.11c-23.88,0-44.11-18.15-45.88-41.93a44.6,44.6,0,0,1,11.16-33,46.24,46.24,0,0,1,31.51-15.61c21.85-1.61,42,12.21,47.83,32.9l-14.27,4c-4-14-17.6-23.26-32.46-22.16a31.55,31.55,0,0,0-21.48,10.61,29.93,29.93,0,0,0-7.5,22.14c1.25,16.78,16.27,29.39,33.51,28.12A31.23,31.23,0,0,0,764.34,901l14.09,4.64A46,46,0,0,1,737.87,937C736.69,937.07,735.51,937.11,734.35,937.11Z"/><path class="cls-4" d="M932.58,836.18c-36.09,0-66.66-27.43-69.33-63.36a67.49,67.49,0,0,1,16.86-49.93,70,70,0,0,1,47.62-23.58c33-2.44,63.4,18.45,72.27,49.71l-21.56,6.12c-6-21.07-26.6-35.15-49.05-33.48a47.64,47.64,0,0,0-32.46,16,45.19,45.19,0,0,0-11.33,33.45c1.88,25.36,24.58,44.41,50.63,42.48a47.17,47.17,0,0,0,41.67-32.06l21.29,7A69.52,69.52,0,0,1,937.89,836C936.11,836.11,934.34,836.18,932.58,836.18Z"/><rect class="cls-4" x="576.48" y="744.84" width="14.83" height="92.12"/><rect class="cls-4" x="1363.1" y="395.23" width="14.83" height="92.12"/><rect class="cls-4" x="1292.37" y="731.89" width="24.96" height="155.02"/><rect class="cls-4" x="576.48" y="395.23" width="14.83" height="92.12"/><rect class="cls-4" x="746.18" y="698.79" width="14.83" height="92.12"/><rect class="cls-4" x="992.59" y="953.59" width="14.83" height="92.12"/><path class="cls-4" d="M799.44,511.92c-23.88,0-44.11-18.15-45.88-41.93a44.68,44.68,0,0,1,11.16-33,46.35,46.35,0,0,1,31.52-15.61c21.85-1.61,42,12.22,47.82,32.9l-14.27,4.05c-3.95-13.94-17.6-23.26-32.45-22.16a31.52,31.52,0,0,0-21.49,10.62,29.93,29.93,0,0,0-7.5,22.14c1.25,16.78,16.27,29.38,33.51,28.11a31.22,31.22,0,0,0,27.58-21.22l14.08,4.64A46,46,0,0,1,803,511.79C801.78,511.88,800.61,511.92,799.44,511.92Z"/><path class="cls-4" d="M954.55,374.07c-23.88,0-44.11-18.15-45.88-41.93a44.64,44.64,0,0,1,11.16-33,46.32,46.32,0,0,1,31.51-15.61c21.85-1.61,42,12.22,47.83,32.9l-14.27,4.05c-3.95-13.94-17.6-23.26-32.46-22.16A31.52,31.52,0,0,0,931,308.9a29.93,29.93,0,0,0-7.5,22.14c1.25,16.78,16.27,29.38,33.51,28.11a31.22,31.22,0,0,0,27.58-21.22l14.08,4.64a46,46,0,0,1-40.56,31.37C956.89,374,955.72,374.07,954.55,374.07Z"/><path class="cls-4" d="M1410.65,933.07c-15.85,0-29.28-12.05-30.45-27.83a29.64,29.64,0,0,1,7.4-21.93,30.86,30.86,0,0,1,52.66,11.48l-9.47,2.69a20.71,20.71,0,0,0-21.54-14.71,20.94,20.94,0,0,0-14.26,7.05,19.84,19.84,0,0,0-5,14.69c.83,11.14,10.8,19.5,22.24,18.66a20.72,20.72,0,0,0,18.3-14.09l9.35,3.09A30.54,30.54,0,0,1,1413,933C1412.2,933,1411.42,933.07,1410.65,933.07Z"/><path class="cls-4" d="M1227.22,395.23c-23.89,0-44.11-18.15-45.88-41.93a44.6,44.6,0,0,1,11.16-33A46.22,46.22,0,0,1,1224,304.66c21.85-1.61,42,12.21,47.82,32.9l-14.26,4.05c-4-13.95-17.6-23.26-32.46-22.16a31.5,31.5,0,0,0-21.48,10.61,29.89,29.89,0,0,0-7.5,22.14c1.24,16.78,16.26,29.39,33.51,28.12a31.24,31.24,0,0,0,27.57-21.22l14.09,4.64a46,46,0,0,1-40.57,31.36C1229.56,395.19,1228.38,395.23,1227.22,395.23Z"/><path class="cls-4" d="M1100.75,554.43c-28.66,0-52.94-21.79-55.06-50.32a53.58,53.58,0,0,1,13.39-39.65,55.51,55.51,0,0,1,37.82-18.73c26.23-1.94,50.36,14.65,57.4,39.48l-17.12,4.86c-4.75-16.74-21.13-27.92-39-26.6a37.91,37.91,0,0,0-25.78,12.74,35.94,35.94,0,0,0-9,26.58c1.5,20.13,19.52,35.26,40.21,33.73a37.47,37.47,0,0,0,33.1-25.46l16.9,5.57A55.2,55.2,0,0,1,1105,554.27C1103.56,554.38,1102.15,554.43,1100.75,554.43Z"/><path class="cls-4" d="M1167.73,959.53c-29.79,0-55-22.64-57.22-52.29A55.67,55.67,0,0,1,1124.42,866a57.77,57.77,0,0,1,39.3-19.46c27.25-2,52.33,15.23,59.65,41l-17.8,5c-4.93-17.39-22-29-40.47-27.64a39.38,39.38,0,0,0-26.8,13.24,37.34,37.34,0,0,0-9.35,27.61c1.56,20.93,20.29,36.65,41.79,35.06a38.93,38.93,0,0,0,34.39-26.46l17.56,5.79a57.37,57.37,0,0,1-50.58,39.12C1170.64,959.47,1169.18,959.53,1167.73,959.53Z"/><path class="cls-4" d="M1379,678.36c-36.2,0-66.86-27.51-69.54-63.55a67.66,67.66,0,0,1,16.91-50.07,70.13,70.13,0,0,1,47.77-23.66c33.11-2.44,63.59,18.51,72.48,49.87L1425,597.08c-6-21.13-26.68-35.25-49.2-33.58a47.78,47.78,0,0,0-32.56,16.09,45.32,45.32,0,0,0-11.36,33.55c1.89,25.43,24.65,44.54,50.78,42.61a47.33,47.33,0,0,0,41.8-32.16l21.34,7c-8.81,26.76-32.94,45.42-61.47,47.54C1382.52,678.29,1380.74,678.36,1379,678.36Z"/><rect class="cls-4" x="689.88" y="283.37" width="20.01" height="124.31"/><rect class="cls-4" x="944.03" y="487.35" width="17.24" height="107.07"/><rect class="cls-4" x="1226.52" y="103.65" width="14.83" height="92.12"/><rect class="cls-4" x="1395.36" y="201.59" width="14.83" height="92.12"/><rect class="cls-4" x="1110.35" y="639.07" width="14.83" height="92.12"/><rect class="cls-3" x="1500" y="-500.35" width="1000" height="1000"/><path class="cls-4" d="M1675.86,185.13c-23.89,0-44.12-18.15-45.88-41.93a44.66,44.66,0,0,1,11.15-33,46.31,46.31,0,0,1,31.52-15.61c21.85-1.61,42,12.21,47.82,32.9l-14.26,4c-4-13.94-17.61-23.26-32.46-22.16A31.47,31.47,0,0,0,1652.27,120a29.89,29.89,0,0,0-7.5,22.14c1.24,16.78,16.26,29.38,33.5,28.11A31.21,31.21,0,0,0,1705.85,149l14.08,4.64A46,46,0,0,1,1679.37,185C1678.19,185.09,1677,185.13,1675.86,185.13Z"/><path class="cls-4" d="M1734.35,437.11c-23.88,0-44.11-18.15-45.88-41.93a44.6,44.6,0,0,1,11.16-33,46.24,46.24,0,0,1,31.51-15.61c21.85-1.61,42,12.21,47.83,32.9l-14.27,4.05c-4-13.95-17.6-23.26-32.46-22.16a31.55,31.55,0,0,0-21.48,10.61,29.93,29.93,0,0,0-7.5,22.14c1.25,16.78,16.27,29.39,33.51,28.12A31.23,31.23,0,0,0,1764.34,401l14.09,4.64A46,46,0,0,1,1737.87,437C1736.69,437.07,1735.51,437.11,1734.35,437.11Z"/><path class="cls-4" d="M1932.58,336.18c-36.09,0-66.66-27.43-69.33-63.36a67.49,67.49,0,0,1,16.86-49.93,70,70,0,0,1,47.62-23.58c33-2.44,63.4,18.45,72.27,49.71l-21.56,6.12c-6-21.07-26.6-35.15-49-33.48a47.64,47.64,0,0,0-32.46,16,45.19,45.19,0,0,0-11.33,33.45c1.88,25.36,24.58,44.41,50.63,42.48a47.17,47.17,0,0,0,41.67-32.06l21.29,7a69.52,69.52,0,0,1-61.3,47.39C1936.11,336.11,1934.34,336.18,1932.58,336.18Z"/><rect class="cls-4" x="1576.48" y="244.84" width="14.83" height="92.12"/><rect class="cls-4" x="1746.18" y="198.79" width="14.83" height="92.12"/><rect class="cls-4" x="1992.59" y="453.59" width="14.83" height="92.12"/><path class="cls-4" d="M1799.44,11.92c-23.88,0-44.11-18.15-45.88-41.93a44.68,44.68,0,0,1,11.16-33,46.35,46.35,0,0,1,31.52-15.61c21.85-1.61,42,12.22,47.82,32.9l-14.27,4c-4-13.94-17.6-23.26-32.45-22.16a31.52,31.52,0,0,0-21.49,10.62,29.93,29.93,0,0,0-7.5,22.14c1.25,16.78,16.27,29.38,33.51,28.11a31.22,31.22,0,0,0,27.58-21.22l14.08,4.64A46,46,0,0,1,1803,11.79C1801.78,11.88,1800.61,11.92,1799.44,11.92Z"/><rect class="cls-4" x="1944.03" y="-12.65" width="17.24" height="107.07"/><rect class="cls-4" x="992.59" y="-46.41" width="14.83" height="92.12"/></pattern><clipPath id="clip-path-2" transform="translate(641.18 1461.29)"><rect class="cls-1" x="-141.18" y="-960.94" width="2000" height="1000"/></clipPath><clipPath id="clip-path-3" transform="translate(641.18 1461.29)"><rect class="cls-1" x="-141.18" y="39.06" width="2000" height="1000"/></clipPath></defs><g id="Capa_2" data-name="Capa 2"><g id="Capa_1-2" data-name="Capa 1"><g class="cls-5"><path class="cls-6" d="M1000,1000H0V0H1000Z" transform="translate(641.18 1461.29)"/><g class="cls-7"><rect class="cls-8" x="500" y="500.35" width="2000" height="1000"/><g class="cls-9"><rect class="cls-8" y="1000" width="1000" height="1000"/><path class="cls-6" d="M184.72-415.94c-23.89,0-44.12-18.15-45.88-41.93a44.66,44.66,0,0,1,11.15-33,46.31,46.31,0,0,1,31.52-15.61c21.85-1.61,42,12.21,47.82,32.9l-14.26,4.05c-4-13.94-17.61-23.26-32.46-22.16a31.52,31.52,0,0,0-21.49,10.62A29.92,29.92,0,0,0,153.63-459c1.24,16.78,16.26,29.38,33.5,28.11a31.21,31.21,0,0,0,27.58-21.22l14.08,4.64a46,46,0,0,1-40.56,31.37C187.05-416,185.88-415.94,184.72-415.94Z" transform="translate(641.18 1461.29)"/><path class="cls-6" d="M-75.44-241.42c-23.89,0-44.12-18.15-45.88-41.93a44.63,44.63,0,0,1,11.15-33A46.35,46.35,0,0,1-78.65-332c21.85-1.61,42,12.22,47.82,32.91l-14.26,4C-49-309-62.7-318.31-77.55-317.21A31.6,31.6,0,0,0-99-306.59a30,30,0,0,0-7.5,22.14c1.25,16.78,16.27,29.39,33.51,28.11a31.21,31.21,0,0,0,27.58-21.22l14.08,4.65a46,46,0,0,1-40.56,31.36C-73.11-241.46-74.28-241.42-75.44-241.42Z" transform="translate(641.18 1461.29)"/><rect class="cls-8" x="863.1" y="1395.59" width="14.83" height="92.12"/><path class="cls-6" d="M86-65.71c-23.88,0-44.11-18.15-45.88-41.93a44.6,44.6,0,0,1,11.16-33,46.22,46.22,0,0,1,31.51-15.61c21.85-1.61,42,12.21,47.83,32.9l-14.27,4c-4-14-17.6-23.26-32.46-22.16a31.55,31.55,0,0,0-21.48,10.61A29.93,29.93,0,0,0,55-108.74C56.2-92,71.22-79.35,88.46-80.62A31.23,31.23,0,0,0,116-101.84l14.09,4.64A46,46,0,0,1,89.56-65.84C88.38-65.75,87.2-65.71,86-65.71Z" transform="translate(641.18 1461.29)"/><path class="cls-6" d="M-40.42,93.49c-28.67,0-52.95-21.79-55.07-50.32A53.58,53.58,0,0,1-82.1,3.52,55.51,55.51,0,0,1-44.27-15.21C-18-17.15,6.08-.56,13.12,24.27L-4,29.13C-8.75,12.39-25.13,1.21-42.95,2.53A37.91,37.91,0,0,0-68.74,15.27a35.94,35.94,0,0,0-9,26.58C-76.24,62-58.21,77.11-37.52,75.58A37.46,37.46,0,0,0-4.43,50.12l16.9,5.57A55.19,55.19,0,0,1-36.21,93.33C-37.62,93.44-39,93.49-40.42,93.49Z" transform="translate(641.18 1461.29)"/><rect class="cls-8" x="726.52" y="1104" width="14.83" height="92.12"/><rect class="cls-8" x="895.36" y="1201.94" width="14.83" height="92.12"/><rect class="cls-8" x="1000" y="1500" width="1000" height="1000"/><path class="cls-6" d="M1184.72,84.06c-23.89,0-44.12-18.15-45.88-41.93a44.66,44.66,0,0,1,11.15-33,46.31,46.31,0,0,1,31.52-15.61c21.85-1.61,42,12.21,47.82,32.9l-14.26,4.05c-4-13.94-17.61-23.26-32.46-22.16a31.52,31.52,0,0,0-21.49,10.62A29.92,29.92,0,0,0,1153.63,41c1.24,16.78,16.26,29.38,33.5,28.11a31.21,31.21,0,0,0,27.58-21.22l14.08,4.64a46,46,0,0,1-40.56,31.37C1187.05,84,1185.88,84.06,1184.72,84.06Z" transform="translate(641.18 1461.29)"/><rect class="cls-8" x="2000" y="1000" width="1000" height="1000"/><path class="cls-6" d="M1534.68-346.49c-23.89,0-44.11-18.15-45.88-41.93a44.64,44.64,0,0,1,11.16-33,46.25,46.25,0,0,1,31.51-15.6c21.85-1.62,42,12.21,47.82,32.9l-14.26,4c-4-13.94-17.6-23.26-32.46-22.15a31.5,31.5,0,0,0-21.48,10.61,29.89,29.89,0,0,0-7.5,22.14c1.24,16.78,16.26,29.39,33.51,28.11a31.22,31.22,0,0,0,27.57-21.21l14.09,4.64a46,46,0,0,1-40.57,31.36C1537-346.53,1535.84-346.49,1534.68-346.49Z" transform="translate(641.18 1461.29)"/><path class="cls-6" d="M1752.55-276.29c-30.43,0-56.2-23.13-58.45-53.42a56.89,56.89,0,0,1,14.21-42.09,59.05,59.05,0,0,1,40.15-19.88c27.83-2.05,53.45,15.56,60.92,41.92l-18.17,5.15c-5-17.76-22.42-29.63-41.35-28.23a40.22,40.22,0,0,0-27.37,13.53,38.13,38.13,0,0,0-9.55,28.2c1.59,21.38,20.72,37.44,42.69,35.81a39.76,39.76,0,0,0,35.13-27l17.94,5.91a58.6,58.6,0,0,1-51.67,40C1755.52-276.35,1754-276.29,1752.55-276.29Z" transform="translate(641.18 1461.29)"/><rect class="cls-8" x="2091.31" y="1128.46" width="14.83" height="92.12"/><rect class="cls-8" x="2246.18" y="1128.46" width="14.83" height="92.12"/><rect class="cls-8" x="2076.48" y="1395.59" width="14.83" height="92.12"/><path class="cls-6" d="M1658.27,51c-23.89,0-44.12-18.15-45.89-41.93a44.68,44.68,0,0,1,11.16-33,46.31,46.31,0,0,1,31.52-15.61c21.85-1.61,42,12.22,47.82,32.9l-14.27,4.05c-3.95-13.94-17.6-23.26-32.45-22.16a31.52,31.52,0,0,0-21.49,10.62A29.93,29.93,0,0,0,1627.17,8c1.25,16.78,16.27,29.38,33.51,28.11a31.21,31.21,0,0,0,27.58-21.22l14.08,4.64a46,46,0,0,1-40.56,31.37C1660.6,50.94,1659.43,51,1658.27,51Z" transform="translate(641.18 1461.29)"/><path class="cls-6" d="M1813.37-86.87c-23.88,0-44.11-18.15-45.88-41.93a44.64,44.64,0,0,1,11.16-33,46.35,46.35,0,0,1,31.52-15.61c21.84-1.61,41.95,12.22,47.82,32.9l-14.27,4.05c-4-13.94-17.6-23.26-32.45-22.16A31.52,31.52,0,0,0,1789.78-152a29.93,29.93,0,0,0-7.5,22.14c1.25,16.78,16.27,29.38,33.51,28.11A31.22,31.22,0,0,0,1843.37-123l14.08,4.64A46,46,0,0,1,1816.89-87C1815.71-86.91,1814.54-86.87,1813.37-86.87Z" transform="translate(641.18 1461.29)"/><rect class="cls-8" x="2189.88" y="1283.72" width="20.01" height="124.31"/><rect class="cls-8" x="2444.03" y="1487.71" width="17.24" height="107.07"/><rect class="cls-8" width="1000" height="1000"/><rect class="cls-8" x="792.37" y="732.25" width="24.96" height="155.02"/><rect class="cls-8" x="492.59" y="953.94" width="14.83" height="92.12"/><path class="cls-6" d="M269.47-527.87c-15.85,0-29.28-12-30.45-27.83a29.64,29.64,0,0,1,7.4-21.93A30.73,30.73,0,0,1,267.34-588a30.59,30.59,0,0,1,31.74,21.83l-9.47,2.69a20.71,20.71,0,0,0-21.54-14.71,20.94,20.94,0,0,0-14.26,7,19.84,19.84,0,0,0-5,14.69c.83,11.14,10.8,19.5,22.24,18.66a20.72,20.72,0,0,0,18.3-14.09l9.35,3.09A30.54,30.54,0,0,1,271.8-528C271-527.9,270.24-527.87,269.47-527.87Z" transform="translate(641.18 1461.29)"/><path class="cls-6" d="M-40.42-906.51c-28.67,0-52.95-21.79-55.07-50.32A53.58,53.58,0,0,1-82.1-996.48a55.51,55.51,0,0,1,37.83-18.73c26.22-1.94,50.35,14.65,57.39,39.48L-4-970.87c-4.75-16.74-21.13-27.92-38.95-26.6a37.91,37.91,0,0,0-25.79,12.74,35.94,35.94,0,0,0-9,26.58c1.5,20.13,19.53,35.26,40.22,33.73A37.46,37.46,0,0,0-4.43-949.88l16.9,5.57a55.19,55.19,0,0,1-48.68,37.64C-37.62-906.56-39-906.51-40.42-906.51Z" transform="translate(641.18 1461.29)"/><path class="cls-6" d="M26.55-501.41c-29.79,0-55-22.64-57.22-52.29a55.72,55.72,0,0,1,13.91-41.21,57.77,57.77,0,0,1,39.31-19.46c27.24-2,52.32,15.23,59.64,41l-17.8,5.05c-4.93-17.39-22-29-40.47-27.64A39.34,39.34,0,0,0-2.87-582.69a37.31,37.31,0,0,0-9.36,27.61c1.56,20.93,20.29,36.65,41.79,35.06A38.92,38.92,0,0,0,64-546.48l17.57,5.79a57.38,57.38,0,0,1-50.59,39.12C29.46-501.47,28-501.41,26.55-501.41Z" transform="translate(641.18 1461.29)"/><path class="cls-6" d="M237.8-782.58c-36.2,0-66.86-27.51-69.54-63.55a67.67,67.67,0,0,1,16.92-50.07,70.09,70.09,0,0,1,47.76-23.66c33.11-2.44,63.59,18.51,72.48,49.87l-21.62,6.13c-6-21.13-26.68-35.25-49.19-33.58a47.74,47.74,0,0,0-32.56,16.09,45.33,45.33,0,0,0-11.37,33.55c1.89,25.43,24.65,44.54,50.78,42.61a47.33,47.33,0,0,0,41.8-32.16l21.34,7c-8.81,26.76-32.94,45.42-61.47,47.54C241.34-782.65,239.56-782.58,237.8-782.58Z" transform="translate(641.18 1461.29)"/><rect class="cls-8" x="610.35" y="639.42" width="14.83" height="92.12"/><rect class="cls-8" x="1000" y="500" width="1000" height="1000"/><path class="cls-6" d="M534.68-846.49c-23.89,0-44.11-18.15-45.88-41.93a44.64,44.64,0,0,1,11.16-33,46.25,46.25,0,0,1,31.51-15.6c21.85-1.62,42,12.21,47.82,32.9l-14.26,4c-4-13.94-17.6-23.26-32.46-22.15a31.5,31.5,0,0,0-21.48,10.61,29.89,29.89,0,0,0-7.5,22.14c1.24,16.78,16.26,29.39,33.51,28.11a31.22,31.22,0,0,0,27.57-21.21L578.76-878a46,46,0,0,1-40.57,31.36C537-846.53,535.84-846.49,534.68-846.49Z" transform="translate(641.18 1461.29)"/><path class="cls-6" d="M752.55-776.29c-30.43,0-56.2-23.13-58.45-53.42a56.89,56.89,0,0,1,14.21-42.09,59.05,59.05,0,0,1,40.15-19.88c27.83-2.05,53.45,15.56,60.92,41.92l-18.17,5.15c-5-17.76-22.42-29.63-41.35-28.23a40.22,40.22,0,0,0-27.37,13.53,38.13,38.13,0,0,0-9.55,28.2c1.59,21.38,20.72,37.44,42.69,35.81a39.76,39.76,0,0,0,35.13-27l17.94,5.91a58.6,58.6,0,0,1-51.67,40C755.52-776.35,754-776.29,752.55-776.29Z" transform="translate(641.18 1461.29)"/><path class="cls-6" d="M1184.72-915.94c-23.89,0-44.12-18.15-45.88-41.93a44.66,44.66,0,0,1,11.15-33,46.31,46.31,0,0,1,31.52-15.61c21.85-1.61,42,12.21,47.82,32.9l-14.26,4c-4-13.94-17.61-23.26-32.46-22.16a31.52,31.52,0,0,0-21.49,10.62,29.92,29.92,0,0,0-7.49,22.14c1.24,16.78,16.26,29.38,33.5,28.11a31.21,31.21,0,0,0,27.58-21.22l14.08,4.64a46,46,0,0,1-40.56,31.37C1187.05-916,1185.88-915.94,1184.72-915.94Z" transform="translate(641.18 1461.29)"/><path class="cls-6" d="M924.56-741.42c-23.89,0-44.12-18.15-45.88-41.93a44.63,44.63,0,0,1,11.15-33A46.35,46.35,0,0,1,921.35-832c21.85-1.61,41.95,12.22,47.82,32.91l-14.26,4c-4-13.94-17.61-23.26-32.46-22.16A31.6,31.6,0,0,0,901-806.59a30,30,0,0,0-7.5,22.14c1.25,16.78,16.27,29.39,33.51,28.11a31.21,31.21,0,0,0,27.58-21.22l14.08,4.65a46,46,0,0,1-40.56,31.36C926.89-741.46,925.72-741.42,924.56-741.42Z" transform="translate(641.18 1461.29)"/><rect class="cls-8" x="1091.31" y="628.46" width="14.83" height="92.12"/><rect class="cls-8" x="1246.18" y="628.46" width="14.83" height="92.12"/><path class="cls-6" d="M534.68-275.81c-23.89,0-44.11-18.15-45.88-41.93a44.62,44.62,0,0,1,11.16-33,46.26,46.26,0,0,1,31.51-15.61c21.85-1.61,42,12.21,47.82,32.9L565-329.44c-4-13.94-17.6-23.26-32.46-22.16A31.47,31.47,0,0,0,511.09-341a29.89,29.89,0,0,0-7.5,22.14c1.24,16.78,16.26,29.38,33.51,28.11a31.21,31.21,0,0,0,27.57-21.22l14.09,4.64a46,46,0,0,1-40.57,31.37C537-275.85,535.84-275.81,534.68-275.81Z" transform="translate(641.18 1461.29)"/><path class="cls-6" d="M593.17-23.83c-23.88,0-44.11-18.15-45.88-41.93a44.6,44.6,0,0,1,11.16-33A46.26,46.26,0,0,1,590-114.4c21.85-1.61,42,12.21,47.83,32.9l-14.27,4c-3.95-14-17.6-23.26-32.46-22.16A31.55,31.55,0,0,0,569.58-89a29.93,29.93,0,0,0-7.5,22.14c1.25,16.78,16.27,29.39,33.51,28.12A31.25,31.25,0,0,0,623.17-60l14.08,4.64A46,46,0,0,1,596.69-24C595.51-23.87,594.34-23.83,593.17-23.83Z" transform="translate(641.18 1461.29)"/><path class="cls-6" d="M791.4-124.76c-36.09,0-66.66-27.43-69.33-63.36A67.49,67.49,0,0,1,738.93-238a70,70,0,0,1,47.62-23.58c33-2.44,63.41,18.45,72.27,49.71l-21.56,6.12c-6-21.07-26.6-35.15-49-33.48a47.64,47.64,0,0,0-32.47,16,45.19,45.19,0,0,0-11.33,33.45c1.88,25.36,24.58,44.41,50.63,42.48a47.17,47.17,0,0,0,41.67-32.06l21.29,7A69.52,69.52,0,0,1,796.71-125C794.93-124.83,793.16-124.76,791.4-124.76Z" transform="translate(641.18 1461.29)"/><rect class="cls-8" x="1076.48" y="1245.2" width="14.83" height="92.12"/><rect class="cls-8" x="1863.1" y="895.59" width="14.83" height="92.12"/><rect class="cls-8" x="1792.37" y="1232.25" width="24.96" height="155.02"/><rect class="cls-8" x="1076.48" y="895.59" width="14.83" height="92.12"/><rect class="cls-8" x="1246.18" y="1199.14" width="14.83" height="92.12"/><rect class="cls-8" x="1492.59" y="1453.94" width="14.83" height="92.12"/><path class="cls-6" d="M658.27-449c-23.89,0-44.12-18.15-45.89-41.93a44.68,44.68,0,0,1,11.16-33,46.31,46.31,0,0,1,31.52-15.61c21.85-1.61,42,12.22,47.82,32.9l-14.27,4.05c-4-13.94-17.6-23.26-32.45-22.16a31.52,31.52,0,0,0-21.49,10.62,29.93,29.93,0,0,0-7.5,22.14c1.25,16.78,16.27,29.38,33.51,28.11a31.21,31.21,0,0,0,27.58-21.22l14.08,4.64a46,46,0,0,1-40.56,31.37C660.6-449.06,659.43-449,658.27-449Z" transform="translate(641.18 1461.29)"/><path class="cls-6" d="M813.37-586.87c-23.88,0-44.11-18.15-45.88-41.93a44.64,44.64,0,0,1,11.16-33,46.35,46.35,0,0,1,31.52-15.61c21.84-1.61,42,12.22,47.82,32.9l-14.27,4c-4-13.94-17.6-23.26-32.45-22.16A31.52,31.52,0,0,0,789.78-652a29.93,29.93,0,0,0-7.5,22.14c1.25,16.78,16.27,29.38,33.51,28.11A31.22,31.22,0,0,0,843.37-623l14.08,4.64A46,46,0,0,1,816.89-587C815.71-586.91,814.54-586.87,813.37-586.87Z" transform="translate(641.18 1461.29)"/><path class="cls-6" d="M1269.47-27.87c-15.85,0-29.28-12-30.45-27.83a29.64,29.64,0,0,1,7.4-21.93A30.73,30.73,0,0,1,1267.34-88a30.59,30.59,0,0,1,31.74,21.83l-9.47,2.69a20.71,20.71,0,0,0-21.54-14.71,20.94,20.94,0,0,0-14.26,7,19.84,19.84,0,0,0-5,14.69c.83,11.14,10.8,19.5,22.24,18.66a20.72,20.72,0,0,0,18.3-14.09l9.35,3.09A30.54,30.54,0,0,1,1271.8-28C1271-27.9,1270.24-27.87,1269.47-27.87Z" transform="translate(641.18 1461.29)"/><path class="cls-6" d="M1086-565.71c-23.88,0-44.11-18.15-45.88-41.93a44.6,44.6,0,0,1,11.16-33,46.22,46.22,0,0,1,31.51-15.61c21.85-1.61,42,12.21,47.83,32.9l-14.27,4c-4-13.95-17.6-23.26-32.46-22.16a31.55,31.55,0,0,0-21.48,10.61,29.93,29.93,0,0,0-7.5,22.14c1.25,16.78,16.27,29.39,33.51,28.12A31.23,31.23,0,0,0,1116-601.84l14.09,4.64a46,46,0,0,1-40.56,31.36C1088.38-565.75,1087.2-565.71,1086-565.71Z" transform="translate(641.18 1461.29)"/><path class="cls-6" d="M959.58-406.51c-28.67,0-53-21.79-55.07-50.32a53.58,53.58,0,0,1,13.39-39.65,55.51,55.51,0,0,1,37.83-18.73c26.22-1.94,50.35,14.65,57.39,39.48L996-470.87c-4.75-16.74-21.13-27.92-39-26.6a37.91,37.91,0,0,0-25.79,12.74,35.94,35.94,0,0,0-9,26.58c1.5,20.13,19.53,35.26,40.22,33.73a37.46,37.46,0,0,0,33.09-25.46l16.9,5.57a55.19,55.19,0,0,1-48.68,37.64C962.38-406.56,961-406.51,959.58-406.51Z" transform="translate(641.18 1461.29)"/><path class="cls-6" d="M1026.55-1.41c-29.79,0-55-22.64-57.22-52.29a55.72,55.72,0,0,1,13.91-41.21,57.77,57.77,0,0,1,39.31-19.46c27.24-2,52.32,15.23,59.64,41l-17.8,5c-4.93-17.39-22-29-40.47-27.64a39.34,39.34,0,0,0-26.79,13.24,37.31,37.31,0,0,0-9.36,27.61c1.56,20.93,20.29,36.65,41.79,35.06A38.92,38.92,0,0,0,1064-46.48l17.57,5.79a57.38,57.38,0,0,1-50.59,39.12C1029.46-1.47,1028-1.41,1026.55-1.41Z" transform="translate(641.18 1461.29)"/><path class="cls-6" d="M1237.8-282.58c-36.2,0-66.86-27.51-69.54-63.55a67.67,67.67,0,0,1,16.92-50.07,70.09,70.09,0,0,1,47.76-23.66c33.11-2.44,63.59,18.51,72.48,49.87l-21.62,6.13c-6-21.13-26.68-35.25-49.19-33.58a47.74,47.74,0,0,0-32.56,16.09,45.33,45.33,0,0,0-11.37,33.55c1.89,25.43,24.65,44.54,50.78,42.61a47.33,47.33,0,0,0,41.8-32.16l21.34,7c-8.81,26.76-32.94,45.42-61.47,47.54C1241.34-282.65,1239.56-282.58,1237.8-282.58Z" transform="translate(641.18 1461.29)"/><rect class="cls-8" x="1189.88" y="783.72" width="20.01" height="124.31"/><rect class="cls-8" x="1444.03" y="987.71" width="17.24" height="107.07"/><rect class="cls-8" x="1726.52" y="604" width="14.83" height="92.12"/><rect class="cls-8" x="1895.36" y="701.94" width="14.83" height="92.12"/><rect class="cls-8" x="1610.35" y="1139.42" width="14.83" height="92.12"/><rect class="cls-8" x="2000" width="1000" height="1000"/><path class="cls-6" d="M1534.68-775.81c-23.89,0-44.11-18.15-45.88-41.93a44.62,44.62,0,0,1,11.16-33,46.26,46.26,0,0,1,31.51-15.61c21.85-1.61,42,12.21,47.82,32.9l-14.26,4c-4-13.94-17.6-23.26-32.46-22.16A31.47,31.47,0,0,0,1511.09-841a29.89,29.89,0,0,0-7.5,22.14c1.24,16.78,16.26,29.38,33.51,28.11a31.21,31.21,0,0,0,27.57-21.22l14.09,4.64a46,46,0,0,1-40.57,31.37C1537-775.85,1535.84-775.81,1534.68-775.81Z" transform="translate(641.18 1461.29)"/><path class="cls-6" d="M1593.17-523.83c-23.88,0-44.11-18.15-45.88-41.93a44.6,44.6,0,0,1,11.16-33A46.26,46.26,0,0,1,1590-614.4c21.85-1.61,42,12.21,47.83,32.9l-14.27,4c-4-13.95-17.6-23.26-32.46-22.16A31.55,31.55,0,0,0,1569.58-589a29.93,29.93,0,0,0-7.5,22.14c1.25,16.78,16.27,29.39,33.51,28.12A31.25,31.25,0,0,0,1623.17-560l14.08,4.64A46,46,0,0,1,1596.69-524C1595.51-523.87,1594.34-523.83,1593.17-523.83Z" transform="translate(641.18 1461.29)"/><path class="cls-6" d="M1791.4-624.76c-36.09,0-66.66-27.43-69.33-63.36A67.49,67.49,0,0,1,1738.93-738a70,70,0,0,1,47.62-23.58c33-2.44,63.41,18.45,72.27,49.71l-21.56,6.12c-6-21.07-26.6-35.15-49-33.48a47.64,47.64,0,0,0-32.47,16,45.19,45.19,0,0,0-11.33,33.45c1.88,25.36,24.58,44.41,50.63,42.48a47.17,47.17,0,0,0,41.67-32.06l21.29,7a69.52,69.52,0,0,1-61.3,47.39C1794.93-624.83,1793.16-624.76,1791.4-624.76Z" transform="translate(641.18 1461.29)"/><rect class="cls-8" x="2076.48" y="745.2" width="14.83" height="92.12"/><rect class="cls-8" x="2246.18" y="699.14" width="14.83" height="92.12"/><rect class="cls-8" x="2492.59" y="953.94" width="14.83" height="92.12"/><path class="cls-6" d="M1658.27-949c-23.89,0-44.12-18.15-45.89-41.93a44.68,44.68,0,0,1,11.16-33,46.31,46.31,0,0,1,31.52-15.61c21.85-1.61,42,12.22,47.82,32.9l-14.27,4.05c-3.95-13.94-17.6-23.26-32.45-22.16a31.52,31.52,0,0,0-21.49,10.62,29.93,29.93,0,0,0-7.5,22.14c1.25,16.78,16.27,29.38,33.51,28.11a31.21,31.21,0,0,0,27.58-21.22l14.08,4.64a46,46,0,0,1-40.56,31.37C1660.6-949.06,1659.43-949,1658.27-949Z" transform="translate(641.18 1461.29)"/><rect class="cls-8" x="2444.03" y="487.71" width="17.24" height="107.07"/><rect class="cls-8" x="1492.59" y="453.94" width="14.83" height="92.12"/></g><rect class="cls-8" x="500" y="1500.35" width="2000" height="1000"/><g class="cls-10"><rect class="cls-8" y="2000" width="1000" height="1000"/><path class="cls-6" d="M184.72,584.06c-23.89,0-44.12-18.15-45.88-41.93a44.66,44.66,0,0,1,11.15-33,46.31,46.31,0,0,1,31.52-15.61c21.85-1.61,42,12.21,47.82,32.9l-14.26,4c-4-13.94-17.61-23.26-32.46-22.16a31.52,31.52,0,0,0-21.49,10.62A29.92,29.92,0,0,0,153.63,541c1.24,16.78,16.26,29.38,33.5,28.11a31.21,31.21,0,0,0,27.58-21.22l14.08,4.64a46,46,0,0,1-40.56,31.37C187.05,584,185.88,584.06,184.72,584.06Z" transform="translate(641.18 1461.29)"/><path class="cls-6" d="M-75.44,758.58c-23.89,0-44.12-18.15-45.88-41.93a44.63,44.63,0,0,1,11.15-33A46.35,46.35,0,0,1-78.65,668c21.85-1.61,42,12.22,47.82,32.91l-14.26,4C-49,691-62.7,681.69-77.55,682.79A31.6,31.6,0,0,0-99,693.41a30,30,0,0,0-7.5,22.14c1.25,16.78,16.27,29.39,33.51,28.11a31.21,31.21,0,0,0,27.58-21.22l14.08,4.65a46,46,0,0,1-40.56,31.36C-73.11,758.54-74.28,758.58-75.44,758.58Z" transform="translate(641.18 1461.29)"/><rect class="cls-8" x="863.1" y="2395.59" width="14.83" height="92.12"/><path class="cls-6" d="M86,934.29c-23.88,0-44.11-18.15-45.88-41.93a44.6,44.6,0,0,1,11.16-33,46.22,46.22,0,0,1,31.51-15.61c21.85-1.61,42,12.21,47.83,32.9l-14.27,4c-4-13.95-17.6-23.26-32.46-22.16a31.55,31.55,0,0,0-21.48,10.61A29.93,29.93,0,0,0,55,891.26C56.2,908,71.22,920.65,88.46,919.38A31.23,31.23,0,0,0,116,898.16l14.09,4.64a46,46,0,0,1-40.56,31.36C88.38,934.25,87.2,934.29,86,934.29Z" transform="translate(641.18 1461.29)"/><path class="cls-6" d="M-40.42,1093.49c-28.67,0-52.95-21.79-55.07-50.32a53.58,53.58,0,0,1,13.39-39.65,55.51,55.51,0,0,1,37.83-18.73c26.22-1.94,50.35,14.65,57.39,39.48L-4,1029.13c-4.75-16.74-21.13-27.92-38.95-26.6a37.91,37.91,0,0,0-25.79,12.74,35.94,35.94,0,0,0-9,26.58c1.5,20.13,19.53,35.26,40.22,33.73a37.46,37.46,0,0,0,33.09-25.46l16.9,5.57a55.19,55.19,0,0,1-48.68,37.64C-37.62,1093.44-39,1093.49-40.42,1093.49Z" transform="translate(641.18 1461.29)"/><rect class="cls-8" x="726.52" y="2104" width="14.83" height="92.12"/><rect class="cls-8" x="895.36" y="2201.94" width="14.83" height="92.12"/><rect class="cls-8" x="1000" y="2500" width="1000" height="1000"/><path class="cls-6" d="M1184.72,1084.06c-23.89,0-44.12-18.15-45.88-41.93a44.66,44.66,0,0,1,11.15-33,46.31,46.31,0,0,1,31.52-15.61c21.85-1.61,42,12.21,47.82,32.9l-14.26,4c-4-13.94-17.61-23.26-32.46-22.16a31.52,31.52,0,0,0-21.49,10.62,29.92,29.92,0,0,0-7.49,22.14c1.24,16.78,16.26,29.38,33.5,28.11a31.21,31.21,0,0,0,27.58-21.22l14.08,4.64a46,46,0,0,1-40.56,31.37C1187.05,1084,1185.88,1084.06,1184.72,1084.06Z" transform="translate(641.18 1461.29)"/><rect class="cls-8" x="2000" y="2000" width="1000" height="1000"/><path class="cls-6" d="M1534.68,653.51c-23.89,0-44.11-18.15-45.88-41.93a44.64,44.64,0,0,1,11.16-33,46.25,46.25,0,0,1,31.51-15.6c21.85-1.62,42,12.21,47.82,32.9l-14.26,4c-4-13.94-17.6-23.26-32.46-22.15a31.5,31.5,0,0,0-21.48,10.61,29.89,29.89,0,0,0-7.5,22.14c1.24,16.78,16.26,29.39,33.51,28.11a31.22,31.22,0,0,0,27.57-21.21l14.09,4.64a46,46,0,0,1-40.57,31.36C1537,653.47,1535.84,653.51,1534.68,653.51Z" transform="translate(641.18 1461.29)"/><path class="cls-6" d="M1752.55,723.71c-30.43,0-56.2-23.13-58.45-53.42a56.89,56.89,0,0,1,14.21-42.09,59.05,59.05,0,0,1,40.15-19.88c27.83-2.05,53.45,15.56,60.92,41.92l-18.17,5.15c-5-17.76-22.42-29.63-41.35-28.23a40.22,40.22,0,0,0-27.37,13.53,38.13,38.13,0,0,0-9.55,28.2c1.59,21.38,20.72,37.44,42.69,35.81a39.76,39.76,0,0,0,35.13-27l17.94,5.91a58.6,58.6,0,0,1-51.67,40C1755.52,723.65,1754,723.71,1752.55,723.71Z" transform="translate(641.18 1461.29)"/><rect class="cls-8" x="2091.31" y="2128.46" width="14.83" height="92.12"/><rect class="cls-8" x="2246.18" y="2128.46" width="14.83" height="92.12"/><rect class="cls-8" x="2076.48" y="2395.59" width="14.83" height="92.12"/><path class="cls-6" d="M1658.27,1051c-23.89,0-44.12-18.15-45.89-41.93a44.68,44.68,0,0,1,11.16-33,46.31,46.31,0,0,1,31.52-15.61c21.85-1.61,42,12.22,47.82,32.9l-14.27,4.05c-3.95-13.94-17.6-23.26-32.45-22.16a31.52,31.52,0,0,0-21.49,10.62,29.93,29.93,0,0,0-7.5,22.14c1.25,16.78,16.27,29.38,33.51,28.11a31.21,31.21,0,0,0,27.58-21.22l14.08,4.64a46,46,0,0,1-40.56,31.37C1660.6,1050.94,1659.43,1051,1658.27,1051Z" transform="translate(641.18 1461.29)"/><path class="cls-6" d="M1813.37,913.13c-23.88,0-44.11-18.15-45.88-41.93a44.64,44.64,0,0,1,11.16-33,46.35,46.35,0,0,1,31.52-15.61c21.84-1.61,41.95,12.22,47.82,32.9l-14.27,4c-4-13.94-17.6-23.26-32.45-22.16A31.52,31.52,0,0,0,1789.78,848a29.93,29.93,0,0,0-7.5,22.14c1.25,16.78,16.27,29.38,33.51,28.11A31.22,31.22,0,0,0,1843.37,877l14.08,4.64A46,46,0,0,1,1816.89,913C1815.71,913.09,1814.54,913.13,1813.37,913.13Z" transform="translate(641.18 1461.29)"/><rect class="cls-8" x="2189.88" y="2283.72" width="20.01" height="124.31"/><rect class="cls-8" x="2444.03" y="2487.71" width="17.24" height="107.07"/><rect class="cls-8" y="1000" width="1000" height="1000"/><rect class="cls-8" x="792.37" y="1732.25" width="24.96" height="155.02"/><rect class="cls-8" x="492.59" y="1953.94" width="14.83" height="92.12"/><path class="cls-6" d="M269.47,472.13c-15.85,0-29.28-12.05-30.45-27.83a29.64,29.64,0,0,1,7.4-21.93,30.86,30.86,0,0,1,52.66,11.48l-9.47,2.69a20.71,20.71,0,0,0-21.54-14.71,20.94,20.94,0,0,0-14.26,7.05,19.84,19.84,0,0,0-5,14.69c.83,11.14,10.8,19.5,22.24,18.66a20.72,20.72,0,0,0,18.3-14.09l9.35,3.09A30.54,30.54,0,0,1,271.8,472C271,472.1,270.24,472.13,269.47,472.13Z" transform="translate(641.18 1461.29)"/><path class="cls-6" d="M-40.42,93.49c-28.67,0-52.95-21.79-55.07-50.32A53.58,53.58,0,0,1-82.1,3.52,55.51,55.51,0,0,1-44.27-15.21C-18-17.15,6.08-.56,13.12,24.27L-4,29.13C-8.75,12.39-25.13,1.21-42.95,2.53A37.91,37.91,0,0,0-68.74,15.27a35.94,35.94,0,0,0-9,26.58C-76.24,62-58.21,77.11-37.52,75.58A37.46,37.46,0,0,0-4.43,50.12l16.9,5.57A55.19,55.19,0,0,1-36.21,93.33C-37.62,93.44-39,93.49-40.42,93.49Z" transform="translate(641.18 1461.29)"/><path class="cls-6" d="M26.55,498.59c-29.79,0-55-22.64-57.22-52.29a55.72,55.72,0,0,1,13.91-41.21,57.77,57.77,0,0,1,39.31-19.46c27.24-2,52.32,15.23,59.64,41l-17.8,5c-4.93-17.39-22-29-40.47-27.64A39.34,39.34,0,0,0-2.87,417.31a37.31,37.31,0,0,0-9.36,27.61c1.56,20.93,20.29,36.65,41.79,35.06A38.92,38.92,0,0,0,64,453.52l17.57,5.79a57.38,57.38,0,0,1-50.59,39.12C29.46,498.53,28,498.59,26.55,498.59Z" transform="translate(641.18 1461.29)"/><path class="cls-6" d="M237.8,217.42c-36.2,0-66.86-27.51-69.54-63.55a67.67,67.67,0,0,1,16.92-50.07,70.09,70.09,0,0,1,47.76-23.66c33.11-2.44,63.59,18.51,72.48,49.87l-21.62,6.13c-6-21.13-26.68-35.25-49.19-33.58a47.74,47.74,0,0,0-32.56,16.09,45.33,45.33,0,0,0-11.37,33.55c1.89,25.43,24.65,44.54,50.78,42.61a47.33,47.33,0,0,0,41.8-32.16l21.34,7c-8.81,26.76-32.94,45.42-61.47,47.54C241.34,217.35,239.56,217.42,237.8,217.42Z" transform="translate(641.18 1461.29)"/><rect class="cls-8" x="610.35" y="1639.42" width="14.83" height="92.12"/><rect class="cls-8" x="1000" y="1500" width="1000" height="1000"/><path class="cls-6" d="M534.68,153.51c-23.89,0-44.11-18.15-45.88-41.93a44.64,44.64,0,0,1,11.16-33,46.25,46.25,0,0,1,31.51-15.6c21.85-1.62,42,12.21,47.82,32.9l-14.26,4c-4-13.94-17.6-23.26-32.46-22.15a31.5,31.5,0,0,0-21.48,10.61,29.89,29.89,0,0,0-7.5,22.14c1.24,16.78,16.26,29.39,33.51,28.11a31.22,31.22,0,0,0,27.57-21.21L578.76,122a46,46,0,0,1-40.57,31.36C537,153.47,535.84,153.51,534.68,153.51Z" transform="translate(641.18 1461.29)"/><path class="cls-6" d="M752.55,223.71c-30.43,0-56.2-23.13-58.45-53.42a56.89,56.89,0,0,1,14.21-42.09,59.05,59.05,0,0,1,40.15-19.88c27.83-2,53.45,15.56,60.92,41.92l-18.17,5.15c-5-17.76-22.42-29.63-41.35-28.23a40.22,40.22,0,0,0-27.37,13.53,38.13,38.13,0,0,0-9.55,28.2c1.59,21.38,20.72,37.44,42.69,35.81a39.76,39.76,0,0,0,35.13-27l17.94,5.91a58.6,58.6,0,0,1-51.67,40C755.52,223.65,754,223.71,752.55,223.71Z" transform="translate(641.18 1461.29)"/><path class="cls-6" d="M1184.72,84.06c-23.89,0-44.12-18.15-45.88-41.93a44.66,44.66,0,0,1,11.15-33,46.31,46.31,0,0,1,31.52-15.61c21.85-1.61,42,12.21,47.82,32.9l-14.26,4.05c-4-13.94-17.61-23.26-32.46-22.16a31.52,31.52,0,0,0-21.49,10.62A29.92,29.92,0,0,0,1153.63,41c1.24,16.78,16.26,29.38,33.5,28.11a31.21,31.21,0,0,0,27.58-21.22l14.08,4.64a46,46,0,0,1-40.56,31.37C1187.05,84,1185.88,84.06,1184.72,84.06Z" transform="translate(641.18 1461.29)"/><path class="cls-6" d="M924.56,258.58c-23.89,0-44.12-18.15-45.88-41.93a44.63,44.63,0,0,1,11.15-33A46.35,46.35,0,0,1,921.35,168c21.85-1.61,41.95,12.22,47.82,32.91l-14.26,4c-4-13.94-17.61-23.26-32.46-22.16A31.6,31.6,0,0,0,901,193.41a30,30,0,0,0-7.5,22.14c1.25,16.78,16.27,29.39,33.51,28.11a31.21,31.21,0,0,0,27.58-21.22l14.08,4.65a46,46,0,0,1-40.56,31.36C926.89,258.54,925.72,258.58,924.56,258.58Z" transform="translate(641.18 1461.29)"/><rect class="cls-8" x="1091.31" y="1628.46" width="14.83" height="92.12"/><rect class="cls-8" x="1246.18" y="1628.46" width="14.83" height="92.12"/><path class="cls-6" d="M534.68,724.19c-23.89,0-44.11-18.15-45.88-41.93a44.62,44.62,0,0,1,11.16-33,46.26,46.26,0,0,1,31.51-15.61c21.85-1.61,42,12.21,47.82,32.9l-14.26,4c-4-13.94-17.6-23.26-32.46-22.16A31.47,31.47,0,0,0,511.09,659a29.89,29.89,0,0,0-7.5,22.14c1.24,16.78,16.26,29.38,33.51,28.11a31.21,31.21,0,0,0,27.57-21.22l14.09,4.64a46,46,0,0,1-40.57,31.37C537,724.15,535.84,724.19,534.68,724.19Z" transform="translate(641.18 1461.29)"/><path class="cls-6" d="M593.17,976.17c-23.88,0-44.11-18.15-45.88-41.93a44.6,44.6,0,0,1,11.16-33A46.26,46.26,0,0,1,590,885.6c21.85-1.61,42,12.21,47.83,32.9l-14.27,4c-3.95-13.95-17.6-23.26-32.46-22.16A31.55,31.55,0,0,0,569.58,911a29.93,29.93,0,0,0-7.5,22.14c1.25,16.78,16.27,29.39,33.51,28.12A31.25,31.25,0,0,0,623.17,940l14.08,4.64A46,46,0,0,1,596.69,976C595.51,976.13,594.34,976.17,593.17,976.17Z" transform="translate(641.18 1461.29)"/><path class="cls-6" d="M791.4,875.24c-36.09,0-66.66-27.43-69.33-63.36A67.49,67.49,0,0,1,738.93,762a70,70,0,0,1,47.62-23.58c33-2.44,63.41,18.45,72.27,49.71l-21.56,6.12c-6-21.07-26.6-35.15-49-33.48a47.64,47.64,0,0,0-32.47,16,45.19,45.19,0,0,0-11.33,33.45c1.88,25.36,24.58,44.41,50.63,42.48a47.17,47.17,0,0,0,41.67-32.06l21.29,7A69.52,69.52,0,0,1,796.71,875C794.93,875.17,793.16,875.24,791.4,875.24Z" transform="translate(641.18 1461.29)"/><rect class="cls-8" x="1076.48" y="2245.2" width="14.83" height="92.12"/><rect class="cls-8" x="1863.1" y="1895.59" width="14.83" height="92.12"/><rect class="cls-8" x="1792.37" y="2232.25" width="24.96" height="155.02"/><rect class="cls-8" x="1076.48" y="1895.59" width="14.83" height="92.12"/><rect class="cls-8" x="1246.18" y="2199.14" width="14.83" height="92.12"/><rect class="cls-8" x="1492.59" y="2453.94" width="14.83" height="92.12"/><path class="cls-6" d="M658.27,551c-23.89,0-44.12-18.15-45.89-41.93a44.68,44.68,0,0,1,11.16-33,46.31,46.31,0,0,1,31.52-15.61c21.85-1.61,42,12.22,47.82,32.9l-14.27,4.05c-4-13.94-17.6-23.26-32.45-22.16a31.52,31.52,0,0,0-21.49,10.62,29.93,29.93,0,0,0-7.5,22.14c1.25,16.78,16.27,29.38,33.51,28.11a31.21,31.21,0,0,0,27.58-21.22l14.08,4.64a46,46,0,0,1-40.56,31.37C660.6,550.94,659.43,551,658.27,551Z" transform="translate(641.18 1461.29)"/><path class="cls-6" d="M813.37,413.13c-23.88,0-44.11-18.15-45.88-41.93a44.64,44.64,0,0,1,11.16-33,46.35,46.35,0,0,1,31.52-15.61c21.84-1.61,42,12.22,47.82,32.9l-14.27,4.05c-4-13.94-17.6-23.26-32.45-22.16A31.52,31.52,0,0,0,789.78,348a29.93,29.93,0,0,0-7.5,22.14c1.25,16.78,16.27,29.38,33.51,28.11A31.22,31.22,0,0,0,843.37,377l14.08,4.64A46,46,0,0,1,816.89,413C815.71,413.09,814.54,413.13,813.37,413.13Z" transform="translate(641.18 1461.29)"/><path class="cls-6" d="M1269.47,972.13c-15.85,0-29.28-12-30.45-27.83a29.64,29.64,0,0,1,7.4-21.93,30.86,30.86,0,0,1,52.66,11.48l-9.47,2.69a20.71,20.71,0,0,0-21.54-14.71,20.94,20.94,0,0,0-14.26,7,19.84,19.84,0,0,0-5,14.69c.83,11.14,10.8,19.5,22.24,18.66a20.72,20.72,0,0,0,18.3-14.09l9.35,3.09A30.54,30.54,0,0,1,1271.8,972C1271,972.1,1270.24,972.13,1269.47,972.13Z" transform="translate(641.18 1461.29)"/><path class="cls-6" d="M1086,434.29c-23.88,0-44.11-18.15-45.88-41.93a44.6,44.6,0,0,1,11.16-33,46.22,46.22,0,0,1,31.51-15.61c21.85-1.61,42,12.21,47.83,32.9l-14.27,4.05c-4-13.95-17.6-23.26-32.46-22.16a31.55,31.55,0,0,0-21.48,10.61,29.93,29.93,0,0,0-7.5,22.14c1.25,16.78,16.27,29.39,33.51,28.12A31.23,31.23,0,0,0,1116,398.16l14.09,4.64a46,46,0,0,1-40.56,31.36C1088.38,434.25,1087.2,434.29,1086,434.29Z" transform="translate(641.18 1461.29)"/><path class="cls-6" d="M959.58,593.49c-28.67,0-53-21.79-55.07-50.32a53.58,53.58,0,0,1,13.39-39.65,55.51,55.51,0,0,1,37.83-18.73c26.22-1.94,50.35,14.65,57.39,39.48L996,529.13c-4.75-16.74-21.13-27.92-39-26.6a37.91,37.91,0,0,0-25.79,12.74,35.94,35.94,0,0,0-9,26.58c1.5,20.13,19.53,35.26,40.22,33.73a37.46,37.46,0,0,0,33.09-25.46l16.9,5.57a55.19,55.19,0,0,1-48.68,37.64C962.38,593.44,961,593.49,959.58,593.49Z" transform="translate(641.18 1461.29)"/><path class="cls-6" d="M1026.55,998.59c-29.79,0-55-22.64-57.22-52.29a55.72,55.72,0,0,1,13.91-41.21,57.77,57.77,0,0,1,39.31-19.46c27.24-2,52.32,15.23,59.64,41l-17.8,5.05c-4.93-17.39-22-29-40.47-27.64a39.34,39.34,0,0,0-26.79,13.24,37.31,37.31,0,0,0-9.36,27.61c1.56,20.93,20.29,36.65,41.79,35.06A38.92,38.92,0,0,0,1064,953.52l17.57,5.79a57.38,57.38,0,0,1-50.59,39.12C1029.46,998.53,1028,998.59,1026.55,998.59Z" transform="translate(641.18 1461.29)"/><path class="cls-6" d="M1237.8,717.42c-36.2,0-66.86-27.51-69.54-63.55a67.67,67.67,0,0,1,16.92-50.07,70.09,70.09,0,0,1,47.76-23.66c33.11-2.44,63.59,18.51,72.48,49.87l-21.62,6.13c-6-21.13-26.68-35.25-49.19-33.58a47.74,47.74,0,0,0-32.56,16.09,45.33,45.33,0,0,0-11.37,33.55c1.89,25.43,24.65,44.54,50.78,42.61a47.33,47.33,0,0,0,41.8-32.16l21.34,7c-8.81,26.76-32.94,45.42-61.47,47.54C1241.34,717.35,1239.56,717.42,1237.8,717.42Z" transform="translate(641.18 1461.29)"/><rect class="cls-8" x="1189.88" y="1783.72" width="20.01" height="124.31"/><rect class="cls-8" x="1444.03" y="1987.71" width="17.24" height="107.07"/><rect class="cls-8" x="1726.52" y="1604" width="14.83" height="92.12"/><rect class="cls-8" x="1895.36" y="1701.94" width="14.83" height="92.12"/><rect class="cls-8" x="1610.35" y="2139.42" width="14.83" height="92.12"/><rect class="cls-8" x="2000" y="1000" width="1000" height="1000"/><path class="cls-6" d="M1534.68,224.19c-23.89,0-44.11-18.15-45.88-41.93a44.62,44.62,0,0,1,11.16-33,46.26,46.26,0,0,1,31.51-15.61c21.85-1.61,42,12.21,47.82,32.9L1565,170.56c-4-13.94-17.6-23.26-32.46-22.16A31.47,31.47,0,0,0,1511.09,159a29.89,29.89,0,0,0-7.5,22.14c1.24,16.78,16.26,29.38,33.51,28.11a31.21,31.21,0,0,0,27.57-21.22l14.09,4.64a46,46,0,0,1-40.57,31.37C1537,224.15,1535.84,224.19,1534.68,224.19Z" transform="translate(641.18 1461.29)"/><path class="cls-6" d="M1593.17,476.17c-23.88,0-44.11-18.15-45.88-41.93a44.6,44.6,0,0,1,11.16-33A46.26,46.26,0,0,1,1590,385.6c21.85-1.61,42,12.21,47.83,32.9l-14.27,4.05c-4-13.95-17.6-23.26-32.46-22.16A31.55,31.55,0,0,0,1569.58,411a29.93,29.93,0,0,0-7.5,22.14c1.25,16.78,16.27,29.39,33.51,28.12A31.25,31.25,0,0,0,1623.17,440l14.08,4.64A46,46,0,0,1,1596.69,476C1595.51,476.13,1594.34,476.17,1593.17,476.17Z" transform="translate(641.18 1461.29)"/><path class="cls-6" d="M1791.4,375.24c-36.09,0-66.66-27.43-69.33-63.36A67.49,67.49,0,0,1,1738.93,262a70,70,0,0,1,47.62-23.58c33-2.44,63.41,18.45,72.27,49.71l-21.56,6.12c-6-21.07-26.6-35.15-49-33.48a47.64,47.64,0,0,0-32.47,16,45.19,45.19,0,0,0-11.33,33.45c1.88,25.36,24.58,44.41,50.63,42.48a47.17,47.17,0,0,0,41.67-32.06l21.29,7a69.52,69.52,0,0,1-61.3,47.39C1794.93,375.17,1793.16,375.24,1791.4,375.24Z" transform="translate(641.18 1461.29)"/><rect class="cls-8" x="2076.48" y="1745.2" width="14.83" height="92.12"/><rect class="cls-8" x="2246.18" y="1699.14" width="14.83" height="92.12"/><rect class="cls-8" x="2492.59" y="1953.94" width="14.83" height="92.12"/><path class="cls-6" d="M1658.27,51c-23.89,0-44.12-18.15-45.89-41.93a44.68,44.68,0,0,1,11.16-33,46.31,46.31,0,0,1,31.52-15.61c21.85-1.61,42,12.22,47.82,32.9l-14.27,4.05c-3.95-13.94-17.6-23.26-32.45-22.16a31.52,31.52,0,0,0-21.49,10.62A29.93,29.93,0,0,0,1627.17,8c1.25,16.78,16.27,29.38,33.51,28.11a31.21,31.21,0,0,0,27.58-21.22l14.08,4.64a46,46,0,0,1-40.56,31.37C1660.6,50.94,1659.43,51,1658.27,51Z" transform="translate(641.18 1461.29)"/><rect class="cls-8" x="2444.03" y="1487.71" width="17.24" height="107.07"/><rect class="cls-8" x="1492.59" y="1453.94" width="14.83" height="92.12"/></g></g></g></g></g></svg>